<svg width="16" height="18" viewBox="0 0 16 18" fill="none" xmlns="http://www.w3.org/2000/svg">
<path fill-rule="evenodd" clip-rule="evenodd" d="M9.45565 3.46922C9.6485 3.46922 9.83346 3.54212 9.96982 3.67188C10.1062 3.80164 10.1828 3.97764 10.1828 4.16116V4.8531H15.2729C15.4657 4.8531 15.6507 4.926 15.787 5.05576C15.9234 5.18553 16 5.36153 16 5.54504V11.7725C16 11.956 15.9234 12.132 15.787 12.2618C15.6507 12.3916 15.4657 12.4645 15.2729 12.4645H9.45565C9.2628 12.4645 9.07784 12.3916 8.94148 12.2618C8.80511 12.132 8.7285 11.956 8.7285 11.7725V11.0806H2.9113V17.3081C2.9113 17.4916 2.83469 17.6676 2.69832 17.7973C2.56195 17.9271 2.377 18 2.18415 18C1.99129 18 1.80634 17.9271 1.66997 17.7973C1.53361 17.6676 1.457 17.4916 1.457 17.3081V4.03384C1.01515 3.88581 0.635115 3.60636 0.373117 3.23685C0.111118 2.86734 -0.0189251 2.4274 0.00222575 1.9821C0.0233766 1.5368 0.194598 1.10981 0.490559 0.764299C0.786519 0.418787 1.1915 0.173107 1.64558 0.0636076C2.09965 -0.0458917 2.57871 -0.0133939 3.01188 0.156293C3.44504 0.32598 3.8093 0.623842 4.05076 1.00581C4.29222 1.38778 4.39806 1.83357 4.35261 2.27721C4.34599 2.34182 4.33622 2.40589 4.32337 2.46922C4.24802 2.84074 4.06706 3.18693 3.79842 3.46922H9.45565ZM14.5457 6.23698H10.1828V11.0806H14.5457V6.23698ZM2.58813 1.51C2.46855 1.43397 2.32796 1.39339 2.18415 1.39339C1.99129 1.39339 1.80634 1.46629 1.66997 1.59605C1.53361 1.72582 1.457 1.90182 1.457 2.08533C1.457 2.22218 1.49964 2.35596 1.57954 2.46975C1.65944 2.58354 1.77301 2.67223 1.90588 2.7246C2.03875 2.77697 2.18495 2.79068 2.32601 2.76398C2.46706 2.73728 2.59663 2.67138 2.69832 2.57461C2.80001 2.47784 2.86927 2.35455 2.89733 2.22032C2.92538 2.0861 2.91098 1.94697 2.85595 1.82054C2.80091 1.6941 2.70771 1.58603 2.58813 1.51ZM2.9113 9.69669H8.7285V4.8531H2.9113V9.69669Z" fill="url(#paint0_linear_92_1190)"/>
<defs>
<linearGradient id="paint0_linear_92_1190" x1="0" y1="0" x2="17.4163" y2="1.36394" gradientUnits="userSpaceOnUse">
<stop stop-color="#FFBB00"/>
<stop offset="1" stop-color="#FF9900"/>
</linearGradient>
</defs>
</svg>
