<svg width="16" height="14" viewBox="0 0 16 14" fill="none" xmlns="http://www.w3.org/2000/svg">
<path fill-rule="evenodd" clip-rule="evenodd" d="M1.33359 0.349976C0.974609 0.349976 0.683594 0.64099 0.683594 0.999976V11C0.683594 11.359 0.974609 11.65 1.33359 11.65H6.00026C6.3583 11.65 6.70168 11.7922 6.95485 12.0454C7.20308 12.2936 7.34466 12.6286 7.3501 12.979V13C7.3501 13.3534 7.63218 13.6409 7.98348 13.6498C7.98901 13.6499 7.99454 13.65 8.0001 13.65C8.00015 13.65 8.00021 13.65 8.00026 13.65C8.35925 13.65 8.65026 13.359 8.65026 13V12.979C8.65569 12.6286 8.79727 12.2936 9.0455 12.0454C9.29868 11.7922 9.64206 11.65 10.0001 11.65H14.6668C15.0257 11.65 15.3168 11.359 15.3168 11V0.999976C15.3168 0.64099 15.0257 0.349976 14.6668 0.349976H10.6668C9.78713 0.349976 8.94352 0.699409 8.32153 1.3214C8.20461 1.43832 8.09733 1.56307 8.00018 1.69441C7.90303 1.56307 7.79575 1.43832 7.67883 1.3214C7.05684 0.699409 6.21323 0.349976 5.33359 0.349976H1.33359ZM8.65026 10.7195V3.66664C8.65026 3.65991 8.65024 3.65319 8.6502 3.64646C8.65547 3.1189 8.86733 2.61408 9.24077 2.24064C9.61896 1.86245 10.1319 1.64998 10.6668 1.64998H14.0168V10.35H10.0001C9.52114 10.35 9.05555 10.4796 8.65026 10.7195ZM7.35016 3.64643C7.34488 3.11888 7.13303 2.61408 6.75959 2.24064C6.38139 1.86245 5.86845 1.64998 5.33359 1.64998H1.98359V10.35H6.00026C6.47922 10.35 6.94481 10.4796 7.3501 10.7195V3.66664C7.3501 3.6599 7.35012 3.65317 7.35016 3.64643Z" fill="url(#paint0_linear_92_1154)"/>
<defs>
<linearGradient id="paint0_linear_92_1154" x1="0.683594" y1="0.349976" x2="16.5606" y2="1.889" gradientUnits="userSpaceOnUse">
<stop stop-color="#FFBB00"/>
<stop offset="1" stop-color="#FF9900"/>
</linearGradient>
</defs>
</svg>
