<svg width="18" height="17" viewBox="0 0 18 17" fill="none" xmlns="http://www.w3.org/2000/svg">
<path fill-rule="evenodd" clip-rule="evenodd" d="M8.59639 2.30355C8.59639 2.08066 8.77707 1.89998 8.99996 1.89998C9.22284 1.89998 9.40353 2.08066 9.40353 2.30355C9.40353 2.52643 9.22284 2.70712 8.99996 2.70712C8.77707 2.70712 8.59639 2.52643 8.59639 2.30355ZM4.25899 1.65344C4.21827 1.65341 4.1773 1.65722 4.13659 1.66505C3.97953 1.69495 3.84249 1.78137 3.74745 1.90235C3.74132 1.91016 3.73535 1.91812 3.72957 1.92622C3.70696 1.95788 3.68711 1.99166 3.67039 2.0272L1.04362 7.28075C0.883075 7.60184 1.01322 7.99228 1.33431 8.15282C1.65539 8.31336 2.04583 8.18322 2.20637 7.86213L4.25898 3.75692L6.31158 7.86213C6.47212 8.18322 6.86256 8.31336 7.18365 8.15282C7.50473 7.99228 7.63488 7.60184 7.47434 7.28075L5.31074 2.95356H7.42479C7.59753 3.37171 7.93193 3.70608 8.3501 3.87878V15.35H5.83921C5.48022 15.35 5.18921 15.641 5.18921 16C5.18921 16.359 5.48022 16.65 5.83921 16.65H8.99335L9.0001 16.65L9.00685 16.65H12.1606C12.5196 16.65 12.8106 16.359 12.8106 16C12.8106 15.641 12.5196 15.35 12.1606 15.35H9.6501V3.87866C10.0681 3.70593 10.4024 3.37162 10.5751 2.95356H12.6894L10.5258 7.28075C10.3653 7.60184 10.4954 7.99228 10.8165 8.15282C11.1376 8.31336 11.528 8.18322 11.6886 7.86213L13.741 3.75717L15.7935 7.86213C15.9541 8.18322 16.3445 8.31336 16.6656 8.15282C16.9867 7.99228 17.1168 7.60184 16.9563 7.28075L14.3305 2.02924C14.3213 2.00946 14.3111 1.99021 14.3 1.97157C14.2863 1.94851 14.2712 1.92637 14.2548 1.90527C14.2151 1.85399 14.1686 1.80983 14.1173 1.77347C14.0483 1.72438 13.9693 1.68844 13.8839 1.6693C13.8365 1.65859 13.7886 1.6534 13.741 1.65344C13.7367 1.65344 13.7323 1.65348 13.7279 1.65356H10.5751C10.3197 1.03515 9.71064 0.599976 8.99996 0.599976C8.28928 0.599976 7.68024 1.03515 7.42478 1.65356H4.272L4.25899 1.65344ZM1.16548 9.21894C1.28738 9.09705 1.45271 9.02856 1.6251 9.02856H6.89295C7.25194 9.02856 7.54295 9.31958 7.54295 9.67856C7.54295 10.5495 7.19697 11.3848 6.58111 12.0007C5.96526 12.6165 5.12998 12.9625 4.25903 12.9625C3.38807 12.9625 2.55279 12.6165 1.93694 12.0007C1.32108 11.3848 0.975098 10.5495 0.975098 9.67856C0.975098 9.50617 1.04358 9.34084 1.16548 9.21894ZM2.3846 10.3286C2.48196 10.6093 2.64207 10.8673 2.85618 11.0814C3.22824 11.4535 3.73286 11.6625 4.25903 11.6625C4.7852 11.6625 5.28982 11.4535 5.66188 11.0814C5.87598 10.8673 6.03609 10.6093 6.13345 10.3286H2.3846ZM11.107 9.02856C10.748 9.02856 10.457 9.31958 10.457 9.67856C10.457 10.5495 10.803 11.3848 11.4189 12.0007C12.0347 12.6165 12.87 12.9625 13.741 12.9625C14.6119 12.9625 15.4472 12.6165 16.063 12.0007C16.6789 11.3848 17.0249 10.5495 17.0249 9.67856C17.0249 9.31958 16.7339 9.02856 16.3749 9.02856H11.107ZM12.3381 11.0814C12.124 10.8673 11.9639 10.6093 11.8665 10.3286H15.6154C15.518 10.6093 15.3579 10.8673 15.1438 11.0814C14.7718 11.4535 14.2671 11.6625 13.741 11.6625C13.2148 11.6625 12.7102 11.4535 12.3381 11.0814Z" fill="url(#paint0_linear_92_1160)"/>
<defs>
<linearGradient id="paint0_linear_92_1160" x1="0.974854" y1="0.599976" x2="18.4175" y2="2.13674" gradientUnits="userSpaceOnUse">
<stop stop-color="#FFBB00"/>
<stop offset="1" stop-color="#FF9900"/>
</linearGradient>
</defs>
</svg>
