<svg width="20" height="16" viewBox="0 0 20 16" fill="none" xmlns="http://www.w3.org/2000/svg">
<path d="M9.99859 0.000105494C9.84969 0.00277215 9.69847 0.0558215 9.55162 0.15162L0.339553 7.42431C0.10291 7.65928 -0.0634478 8.16521 0.180464 8.47733C0.424372 8.78945 0.937353 8.83132 1.23349 8.56824L9.99859 1.65161L18.7637 8.56824C19.0598 8.83132 19.5836 8.7976 19.8167 8.47733C20.0212 8.19629 19.9709 7.65856 19.6576 7.42431L10.4456 0.15162C10.2941 0.0451671 10.1475 -0.00255873 9.99859 0.000105494ZM4.18044 7.09855L2.7259 8.25006V15.2727C2.72592 15.4656 2.80255 15.6506 2.93894 15.787C3.07532 15.9234 3.26029 16 3.45317 16H8.05921C8.25208 16 8.43706 15.9234 8.57344 15.787C8.70983 15.6506 8.78645 15.4656 8.78647 15.2727V12.3637C8.78647 11.6796 9.3145 11.1516 9.99859 11.1516C10.6827 11.1516 11.2107 11.6796 11.2107 12.3637V15.2727C11.2107 15.4656 11.2874 15.6506 11.4237 15.787C11.5601 15.9234 11.7451 16 11.938 16H16.544C16.7369 16 16.9219 15.9234 17.0582 15.787C17.1946 15.6506 17.2713 15.4656 17.2713 15.2727V8.25006L15.8167 7.09855V14.5455H12.6652V12.3637C12.6652 10.8989 11.4633 9.69702 9.99859 9.69702C8.53384 9.69702 7.33194 10.8989 7.33194 12.3637V14.5455H4.18044V7.09855V7.09855Z" fill="#353533"/>
<path fill-rule="evenodd" clip-rule="evenodd" d="M18.7637 8.56824C19.0598 8.83132 19.5836 8.7976 19.8167 8.47733C20.0212 8.19629 19.9709 7.65856 19.6576 7.42431L10.4456 0.15162C10.2941 0.0451671 10.1475 -0.00255873 9.99859 0.000105494C9.84969 0.00277215 9.69847 0.0558216 9.55162 0.15162L0.339553 7.42431C0.10291 7.65928 -0.0634478 8.16521 0.180464 8.47733C0.424372 8.78945 0.937353 8.83132 1.23349 8.56824L9.99859 1.65161L18.7637 8.56824ZM17.2713 8.25006L15.8167 7.09855V14.5455H12.6652V12.3637C12.6652 10.8989 11.4633 9.69702 9.99859 9.69702C8.53384 9.69702 7.33194 10.8989 7.33194 12.3637V14.5455H4.18044V7.09855L2.7259 8.25006V15.2727C2.72592 15.4656 2.80255 15.6506 2.93894 15.787C3.07532 15.9234 3.26029 16 3.45317 16H8.05921C8.25208 16 8.43706 15.9234 8.57344 15.787C8.70983 15.6506 8.78646 15.4656 8.78647 15.2727V12.3637C8.78647 11.6796 9.3145 11.1516 9.99859 11.1516C10.6827 11.1516 11.2107 11.6796 11.2107 12.3637V15.2727C11.2107 15.4656 11.2873 15.6506 11.4237 15.787C11.5601 15.9234 11.7451 16 11.938 16H16.544C16.7369 16 16.9219 15.9234 17.0582 15.787C17.1946 15.6506 17.2713 15.4656 17.2713 15.2727V8.25006Z" fill="url(#paint0_linear_92_1140)"/>
<defs>
<linearGradient id="paint0_linear_92_1140" x1="0.0605469" y1="0" x2="21.5739" y2="2.35488" gradientUnits="userSpaceOnUse">
<stop stop-color="#FFBB00"/>
<stop offset="1" stop-color="#FF9900"/>
</linearGradient>
</defs>
</svg>
