<svg width="16" height="20" viewBox="0 0 16 20" fill="none" xmlns="http://www.w3.org/2000/svg">
<path d="M8.00003 0C4.07272 0 0.888916 3.26066 0.888916 7.25C0.888916 9.24816 1.7221 10.6124 2.64586 11.7361C3.47967 12.7504 4.36457 13.6178 4.9792 14.7778C4.92035 14.879 4.88921 14.994 4.88892 15.1111V17.3333C4.88893 17.5101 4.95918 17.6797 5.0842 17.8047C5.20922 17.9297 5.37878 18 5.55558 18H6.00003V19.3333C6.00005 19.5101 6.07029 19.6797 6.19531 19.8047C6.32033 19.9297 6.48989 20 6.6667 20H9.33336C9.51017 20 9.67973 19.9297 9.80475 19.8047C9.92977 19.6797 10 19.5101 10 19.3333V18H10.4445C10.6213 18 10.7908 17.9297 10.9159 17.8047C11.0409 17.6797 11.1111 17.5101 11.1111 17.3333V15.1111C11.1111 14.9343 11.0409 14.7647 10.9159 14.6397C10.7908 14.5147 10.6213 14.4445 10.4445 14.4444H8.6667V8.44444H9.33336C9.4217 8.44569 9.50941 8.42937 9.59139 8.39643C9.67337 8.36349 9.74798 8.31458 9.8109 8.25255C9.87381 8.19052 9.92377 8.11661 9.95787 8.0351C9.99197 7.9536 10.0095 7.86613 10.0095 7.77778C10.0095 7.68943 9.99197 7.60196 9.95787 7.52045C9.92377 7.43895 9.87381 7.36503 9.8109 7.30301C9.74798 7.24098 9.67337 7.19207 9.59139 7.15913C9.50941 7.12618 9.4217 7.10986 9.33336 7.11111H6.6667C6.64356 7.10991 6.62038 7.10991 6.59725 7.11111C6.50969 7.11566 6.42389 7.1374 6.34473 7.17511C6.26558 7.21282 6.19463 7.26576 6.13594 7.33089C6.07725 7.39602 6.03196 7.47208 6.00266 7.55471C5.97336 7.63735 5.96063 7.72495 5.96519 7.81251C5.96975 7.90006 5.99151 7.98587 6.02924 8.06501C6.06696 8.14416 6.11991 8.2151 6.18505 8.27378C6.25019 8.33246 6.32625 8.37774 6.4089 8.40702C6.49154 8.4363 6.57914 8.44902 6.6667 8.44444H7.33336V14.4444H6.31253C5.57701 12.9049 4.49439 11.8872 3.67364 10.8889C2.8233 9.85456 2.22225 8.8978 2.22225 7.25C2.22225 3.96588 4.809 1.33333 8.00003 1.33333C11.1911 1.33333 13.7778 3.96588 13.7778 7.25C13.7778 8.46849 13.4436 9.29487 12.9306 10.0764C12.4176 10.8579 11.7032 11.5777 10.9931 12.4514C10.935 12.519 10.891 12.5975 10.8637 12.6824C10.8365 12.7673 10.8266 12.8568 10.8345 12.9455C10.8424 13.0343 10.8681 13.1206 10.91 13.1993C10.9519 13.278 11.0091 13.3475 11.0783 13.4037C11.1475 13.4599 11.2272 13.5016 11.3128 13.5265C11.3985 13.5513 11.4882 13.5587 11.5767 13.5483C11.6652 13.5378 11.7508 13.5097 11.8283 13.4657C11.9057 13.4216 11.9736 13.3624 12.0278 13.2917C12.6817 12.4872 13.4348 11.7408 14.0486 10.8056C14.6625 9.87036 15.1111 8.72758 15.1111 7.25C15.1111 3.26066 11.9273 0 8.00003 0ZM6.22225 15.7778H9.77781V16.6667H6.22225V15.7778ZM7.33336 18H8.6667V18.6667H7.33336V18Z" fill="#353533"/>
<path fill-rule="evenodd" clip-rule="evenodd" d="M5.55558 18C5.37878 18 5.20922 17.9297 5.0842 17.8047C4.95918 17.6797 4.88893 17.5101 4.88892 17.3333V15.1111C4.88921 14.994 4.92035 14.879 4.9792 14.7778C4.52067 13.9124 3.91171 13.2098 3.28577 12.4877C3.07268 12.2418 2.85762 11.9937 2.64586 11.7361C1.7221 10.6124 0.888916 9.24816 0.888916 7.25C0.888916 3.26066 4.07272 0 8.00003 0C11.9273 0 15.1111 3.26066 15.1111 7.25C15.1111 8.72758 14.6625 9.87036 14.0486 10.8056C13.6374 11.432 13.1638 11.9737 12.6993 12.505C12.4704 12.7668 12.2437 13.0261 12.0278 13.2917C11.9736 13.3624 11.9057 13.4216 11.8283 13.4657C11.7508 13.5097 11.6652 13.5378 11.5767 13.5483C11.4882 13.5587 11.3985 13.5513 11.3128 13.5265C11.2272 13.5016 11.1475 13.4599 11.0783 13.4037C11.0091 13.3475 10.9519 13.278 10.91 13.1993C10.8681 13.1206 10.8424 13.0343 10.8345 12.9455C10.8266 12.8568 10.8365 12.7673 10.8637 12.6824C10.891 12.5975 10.935 12.519 10.9931 12.4514C11.2423 12.1448 11.492 11.8572 11.7333 11.5792C12.1798 11.0649 12.5976 10.5836 12.9306 10.0764C13.4436 9.29487 13.7778 8.46849 13.7778 7.25C13.7778 3.96588 11.1911 1.33333 8.00003 1.33333C4.809 1.33333 2.22225 3.96588 2.22225 7.25C2.22225 8.8978 2.8233 9.85456 3.67364 10.8889C3.8649 11.1215 4.07039 11.3552 4.28239 11.5964C4.98012 12.3899 5.74841 13.2637 6.31253 14.4444H7.33336V8.44444H6.6667C6.64344 8.44566 6.62018 8.44566 6.59701 8.44444C6.53295 8.4411 6.46959 8.42853 6.4089 8.40702C6.32625 8.37774 6.25019 8.33246 6.18505 8.27378C6.11991 8.2151 6.06696 8.14416 6.02924 8.06501C5.99151 7.98587 5.96975 7.90006 5.96519 7.81251C5.96063 7.72495 5.97336 7.63735 6.00266 7.55471C6.03196 7.47208 6.07725 7.39602 6.13594 7.33089C6.19463 7.26576 6.26558 7.21282 6.34473 7.17511C6.42389 7.1374 6.50969 7.11566 6.59725 7.11111C6.62038 7.10991 6.64356 7.10991 6.6667 7.11111H9.33336C9.4217 7.10986 9.50941 7.12618 9.59139 7.15913C9.67337 7.19207 9.74798 7.24098 9.8109 7.30301C9.87381 7.36504 9.92377 7.43895 9.95787 7.52045C9.99197 7.60196 10.0095 7.68943 10.0095 7.77778C10.0095 7.86613 9.99197 7.9536 9.95787 8.0351C9.92377 8.11661 9.87381 8.19052 9.8109 8.25255C9.74798 8.31458 9.67337 8.36349 9.59139 8.39643C9.51525 8.42703 9.43416 8.44329 9.35222 8.44444C9.34594 8.44453 9.33965 8.44453 9.33336 8.44444H8.6667V14.4444H10.4445C10.6213 14.4445 10.7908 14.5147 10.9159 14.6397C11.0409 14.7647 11.1111 14.9343 11.1111 15.1111V17.3333C11.1111 17.5101 11.0409 17.6797 10.9159 17.8047C10.7908 17.9297 10.6213 18 10.4445 18H10V19.3333C10 19.5101 9.92977 19.6797 9.80475 19.8047C9.67973 19.9297 9.51017 20 9.33336 20H6.6667C6.48989 20 6.32033 19.9297 6.19531 19.8047C6.07029 19.6797 6.00005 19.5101 6.00003 19.3333V18H5.55558ZM8.6667 18H7.33336V18.6667H8.6667V18ZM9.77781 15.7778H6.22225V16.6667H9.77781V15.7778Z" fill="url(#paint0_linear_92_1145)"/>
<defs>
<linearGradient id="paint0_linear_92_1145" x1="0.888916" y1="0" x2="16.4041" y2="0.972045" gradientUnits="userSpaceOnUse">
<stop stop-color="#FFBB00"/>
<stop offset="1" stop-color="#FF9900"/>
</linearGradient>
</defs>
</svg>
