<svg width="32" height="32" viewBox="0 0 32 32" fill="none" xmlns="http://www.w3.org/2000/svg">
<path fill-rule="evenodd" clip-rule="evenodd" d="M16 0C24.8352 0 32 7.1648 32 16C32 24.8352 24.8352 32 16 32C7.1648 32 0 24.8352 0 16C0 7.1648 7.1648 0 16 0Z" fill="#006AE3"/>
<path d="M15.3408 22.7456V9.43359H16.7904V22.7456H15.3408Z" fill="white"/>
<path d="M22.72 13.8689L18.2432 15.0561L17.2448 10.4097L18.576 10.1089L19.1008 12.3105C19.1008 12.3105 20.3104 10.3265 18.6976 8.27213C17.7472 7.21613 17.296 7.17133 16.2304 7.00493C15.2928 6.87053 13.1136 7.18733 12.464 9.73133C12.1888 11.3697 12.4992 12.5825 14.6112 14.1697L14.4928 15.9361C14.4928 15.9361 12.1344 14.2753 11.5264 13.1105C11.056 12.1889 10.2496 10.3681 11.7056 7.83373C12.4896 6.56653 14.0352 5.35053 16.7584 5.47853C18.128 5.53613 21.472 7.20973 20.9536 11.1201C20.864 11.8529 20.4832 12.8289 20.4832 12.8289L22.32 12.4193L22.72 13.8689Z" fill="white"/>
<path d="M20.1632 24.2847C19.344 25.5295 17.7664 26.7039 15.0496 26.5055C13.68 26.4127 10.384 24.6495 11.0048 20.7552C11.1136 20.0256 11.52 19.0624 11.52 19.0624L9.67355 19.4208L9.31195 17.9648L13.8208 16.896L14.6976 21.568L13.3568 21.8335L12.8896 19.616C12.8896 19.616 11.6288 21.5648 13.184 23.6639C14.1056 24.7455 14.5536 24.7999 15.6192 24.9951C16.5504 25.1551 18.7392 24.8927 19.456 22.3679C19.7728 20.7392 19.4944 19.5168 17.4272 17.872L17.5936 16.1088C17.5936 16.1088 19.9072 17.8304 20.4832 19.0112C20.9248 19.9488 21.6832 21.792 20.1632 24.2847Z" fill="white"/>
</svg>
