<svg width="32" height="32" viewBox="0 0 32 32" fill="none" xmlns="http://www.w3.org/2000/svg">
<path d="M16 32C24.8366 32 32 24.8366 32 16C32 7.16344 24.8366 0 16 0C7.16344 0 0 7.16344 0 16C0 24.8366 7.16344 32 16 32Z" fill="url(#paint0_linear_126_1188)"/>
<path d="M10.73 12.0223C10.6021 11.8635 10.408 11.7753 10.2008 11.7753H5.92733C5.89205 11.7753 5.86118 11.7621 5.83472 11.74C5.81267 11.718 5.79944 11.6915 5.79944 11.6606V8.7808C5.79944 8.74993 5.81267 8.72347 5.83472 8.70142C5.86118 8.67496 5.89205 8.66173 5.92733 8.66614H10.4433C11.5811 8.66614 12.5646 9.13361 13.3937 10.0642L14.4918 11.4048L12.3529 14.0112L10.73 12.0223ZM18.6241 10.0509C19.4488 9.1292 20.4367 8.66614 21.5878 8.66614H26.0905C26.1214 8.66173 26.1522 8.67496 26.1743 8.6926C26.1964 8.71465 26.2052 8.74552 26.2008 8.7808V11.6606C26.2008 11.6915 26.1919 11.718 26.1743 11.74C26.1522 11.7665 26.1214 11.7797 26.0905 11.7753H21.8171C21.6142 11.7709 21.4202 11.8635 21.2879 12.0223L18.139 15.8547L21.3011 19.7135C21.429 19.8591 21.6186 19.9473 21.8127 19.9429H26.0861C26.117 19.9385 26.1523 19.9561 26.1699 19.9782C26.1875 20.0046 26.2008 20.0399 26.1964 20.0708V22.9506C26.1964 22.9815 26.1875 23.0079 26.1699 23.03C26.1478 23.0564 26.117 23.0697 26.0861 23.0653H21.5878C20.4367 23.0653 19.4577 22.5978 18.6374 21.6672L16.0177 18.4699L13.3981 21.6672C12.5734 22.5978 11.5855 23.0653 10.4345 23.0653H5.92733C5.89646 23.0697 5.86118 23.052 5.84354 23.03C5.82149 23.0035 5.81267 22.9682 5.81708 22.9374V20.0575C5.81708 20.0267 5.8259 20.0002 5.84354 19.9782C5.86559 19.9517 5.89646 19.9385 5.92733 19.9429H10.2008C10.4036 19.9429 10.5977 19.8503 10.73 19.6959L13.8215 15.9208L18.6241 10.0509Z" fill="#00D1FF"/>
<defs>
<linearGradient id="paint0_linear_126_1188" x1="16.0022" y1="-9.2613e-05" x2="16.0022" y2="8.46738" gradientUnits="userSpaceOnUse">
<stop stop-color="#090220"/>
<stop offset="1" stop-color="#170659"/>
</linearGradient>
</defs>
</svg>
