<svg width="32" height="32" viewBox="0 0 32 32" fill="none" xmlns="http://www.w3.org/2000/svg">
<path d="M16 32C24.8366 32 32 24.8366 32 16C32 7.16344 24.8366 0 16 0C7.16344 0 0 7.16344 0 16C0 24.8366 7.16344 32 16 32Z" fill="url(#paint0_linear_126_1186)"/>
<path d="M8.12482 20.8V13.2693L13.8358 17.5675V20.8H15.2934V17.264C15.2931 17.1326 15.2624 17.0031 15.2036 16.8855C15.1448 16.768 15.0596 16.6657 14.9547 16.5867L8.02882 11.3723C7.90214 11.2782 7.75186 11.2211 7.59466 11.2073C7.43747 11.1934 7.27953 11.2235 7.13839 11.2941C6.99725 11.3646 6.87844 11.473 6.79517 11.607C6.7119 11.741 6.66742 11.8955 6.66669 12.0533V20.8H8.12482ZM23.919 20.8V13.2693L18.208 17.5675V20.8H16.7504V17.264C16.7507 17.1326 16.7814 17.0031 16.8402 16.8855C16.8989 16.768 16.9841 16.6657 17.0891 16.5867L24.015 11.3744C24.1415 11.2804 24.2916 11.2233 24.4486 11.2094C24.6056 11.1955 24.7634 11.2254 24.9044 11.2957C25.0455 11.366 25.1643 11.474 25.2478 11.6078C25.3312 11.7415 25.376 11.8957 25.3771 12.0533V20.8H23.919Z" fill="white"/>
<defs>
<linearGradient id="paint0_linear_126_1186" x1="16" y1="0" x2="16" y2="32" gradientUnits="userSpaceOnUse">
<stop stop-color="#4FA89B"/>
<stop offset="1" stop-color="#6ACEBB"/>
</linearGradient>
</defs>
</svg>
