<svg width="32" height="32" viewBox="0 0 32 32" fill="none" xmlns="http://www.w3.org/2000/svg">
<circle cx="16" cy="16" r="16" fill="white"/>
<path d="M13.4842 8.40729C13.2532 8.37428 13.2422 8.36328 13.3522 8.35227C13.5612 8.31927 14.0453 8.36328 14.3864 8.44029C15.1785 8.62733 15.8937 9.11143 16.6528 9.9586L16.8509 10.1896L17.1369 10.1456C18.3582 9.9476 19.6125 10.1016 20.6577 10.5857C20.9437 10.7178 21.3948 10.9818 21.4498 11.0478C21.4718 11.0698 21.5048 11.2129 21.5268 11.3559C21.6039 11.873 21.5708 12.2581 21.4058 12.5551C21.3178 12.7202 21.3178 12.7642 21.3728 12.9072C21.4168 13.0172 21.5488 13.0942 21.6699 13.0942C21.9339 13.0942 22.209 12.6762 22.341 12.093L22.396 11.862L22.495 11.972C23.0562 12.5991 23.4962 13.4683 23.5623 14.0844L23.5843 14.2495L23.4852 14.1064C23.3202 13.8534 23.1662 13.6884 22.9571 13.5453C22.5831 13.2923 22.187 13.2153 21.1418 13.1603C20.1956 13.1052 19.6565 13.0282 19.1284 12.8522C18.2262 12.5551 17.7641 12.1701 16.6969 10.7508C16.2238 10.1236 15.9267 9.78257 15.6296 9.49651C14.9805 8.86938 14.3314 8.53931 13.4842 8.40729Z" fill="#FF007A"/>
<path d="M21.6809 9.80474C21.7029 9.38665 21.7579 9.1116 21.8789 8.85855C21.9229 8.75953 21.9669 8.67151 21.9779 8.67151C21.989 8.67151 21.9669 8.74852 21.9339 8.83654C21.8459 9.07859 21.8349 9.41966 21.8899 9.80474C21.9669 10.2998 22 10.3659 22.5281 10.905C22.7701 11.158 23.0562 11.4771 23.1662 11.6091L23.3532 11.8512L23.1662 11.6751C22.9351 11.4551 22.407 11.037 22.286 10.982C22.209 10.938 22.198 10.938 22.143 10.993C22.099 11.037 22.088 11.103 22.088 11.4221C22.077 11.9172 22.011 12.2252 21.8459 12.5443C21.7579 12.7093 21.7469 12.6763 21.8239 12.4893C21.8789 12.3463 21.8899 12.2802 21.8899 11.8071C21.8899 10.85 21.7799 10.6189 21.1088 10.2338C20.9437 10.1348 20.6577 9.99178 20.4926 9.91476C20.3166 9.83775 20.1846 9.77173 20.1956 9.77173C20.2176 9.74973 20.8667 9.93677 21.1198 10.0468C21.5049 10.2008 21.5709 10.2118 21.6149 10.2008C21.6479 10.1678 21.6699 10.0798 21.6809 9.80474Z" fill="#FF007A"/>
<path d="M13.9353 11.4441C13.4732 10.8059 13.1762 9.81573 13.2422 9.07858L13.2642 8.84753L13.3742 8.86954C13.5723 8.90255 13.9133 9.03457 14.0784 9.13359C14.5184 9.39765 14.7165 9.76072 14.9035 10.6629C14.9585 10.927 15.0356 11.235 15.0686 11.334C15.1236 11.4991 15.3326 11.8842 15.5087 12.1262C15.6297 12.3022 15.5527 12.3903 15.2776 12.3683C14.8595 12.3242 14.2984 11.9392 13.9353 11.4441Z" fill="#FF007A"/>
<path d="M21.1198 16.2299C18.9414 15.3498 18.1712 14.5906 18.1712 13.3033C18.1712 13.1163 18.1822 12.9623 18.1822 12.9623C18.1932 12.9623 18.2702 13.0283 18.3692 13.1053C18.8093 13.4574 19.3044 13.6114 20.6797 13.8095C21.4829 13.9305 21.945 14.0185 22.3631 14.1615C23.6943 14.6016 24.5195 15.5038 24.7175 16.725C24.7725 17.0771 24.7395 17.7483 24.6515 18.1003C24.5745 18.3754 24.3545 18.8815 24.2995 18.8925C24.2884 18.8925 24.2664 18.8375 24.2664 18.7495C24.2444 18.2874 24.0134 17.8473 23.6283 17.5062C23.1662 17.1101 22.5721 16.8131 21.1198 16.2299Z" fill="#FF007A"/>
<path d="M19.5795 16.5932C19.5575 16.4282 19.5025 16.2191 19.4695 16.1311L19.4145 15.9661L19.5135 16.0871C19.6565 16.2521 19.7665 16.4502 19.8655 16.7252C19.9426 16.9343 19.9426 17.0003 19.9426 17.3413C19.9426 17.6714 19.9316 17.7484 19.8655 17.9355C19.7555 18.2325 19.6235 18.4416 19.4035 18.6726C19.0074 19.0797 18.4903 19.2997 17.7531 19.3988C17.6211 19.4098 17.247 19.4428 16.9169 19.4648C16.0918 19.5088 15.5417 19.5968 15.0466 19.7728C14.9806 19.7948 14.9145 19.8168 14.9035 19.8058C14.8815 19.7838 15.2226 19.5858 15.4977 19.4538C15.8827 19.2667 16.2788 19.1677 17.148 19.0137C17.5771 18.9477 18.0172 18.8597 18.1272 18.8156C19.2164 18.4746 19.7555 17.6274 19.5795 16.5932Z" fill="#FF007A"/>
<path d="M20.5807 18.3644C20.2947 17.7373 20.2287 17.1432 20.3827 16.5821C20.4047 16.5271 20.4267 16.472 20.4487 16.472C20.4707 16.472 20.5367 16.5051 20.6027 16.5491C20.7348 16.6371 21.0098 16.7911 21.714 17.1762C22.6051 17.6603 23.1112 18.0344 23.4633 18.4635C23.7714 18.8375 23.9584 19.2666 24.0464 19.7947C24.1014 20.0918 24.0684 20.8069 23.9914 21.104C23.7494 22.0392 23.1993 22.7873 22.3961 23.2164C22.2751 23.2824 22.1761 23.3264 22.165 23.3264C22.154 23.3264 22.1981 23.2164 22.2641 23.0844C22.5281 22.5233 22.5611 21.9842 22.3631 21.379C22.2421 21.005 21.989 20.5539 21.4829 19.7947C20.8778 18.9145 20.7348 18.6835 20.5807 18.3644Z" fill="#FF007A"/>
<path d="M12.384 21.7312C13.1982 21.049 14.1994 20.5649 15.1236 20.4109C15.5196 20.3449 16.1798 20.3669 16.5428 20.4659C17.126 20.6199 17.6541 20.95 17.9291 21.3571C18.1932 21.7532 18.3142 22.0942 18.4352 22.8534C18.4792 23.1505 18.5343 23.4585 18.5453 23.5245C18.6333 23.9206 18.8093 24.2287 19.0294 24.3937C19.3704 24.6468 19.9645 24.6578 20.5477 24.4377C20.6467 24.4047 20.7347 24.3717 20.7347 24.3827C20.7567 24.4047 20.4596 24.6028 20.2616 24.7018C19.9865 24.8448 19.7665 24.8888 19.4694 24.8888C18.9413 24.8888 18.4902 24.6138 18.1272 24.0636C18.0502 23.9536 17.8961 23.6346 17.7641 23.3375C17.379 22.4463 17.181 22.1823 16.7299 21.8852C16.3338 21.6322 15.8277 21.5771 15.4426 21.7642C14.9365 22.0062 14.8045 22.6554 15.1566 23.0514C15.2996 23.2165 15.5636 23.3485 15.7837 23.3815C16.1908 23.4365 16.5428 23.1175 16.5428 22.7104C16.5428 22.4463 16.4438 22.2923 16.1798 22.1713C15.8277 22.0172 15.4426 22.1933 15.4536 22.5343C15.4536 22.6774 15.5196 22.7654 15.6627 22.8314C15.7507 22.8754 15.7507 22.8754 15.6847 22.8644C15.3656 22.7984 15.2886 22.4023 15.5416 22.1493C15.8497 21.8412 16.4988 21.9732 16.7189 22.4023C16.8069 22.5783 16.8179 22.9304 16.7409 23.1505C16.5539 23.6346 16.0257 23.8876 15.4866 23.7446C15.1236 23.6456 14.9695 23.5465 14.5294 23.0955C13.7593 22.3033 13.4622 22.1493 12.362 21.9842L12.153 21.9512L12.384 21.7312Z" fill="#FF007A"/>
<path fill-rule="evenodd" clip-rule="evenodd" d="M6.59686 4.02852C9.16038 7.14215 13.1102 11.9831 13.3082 12.2472C13.4733 12.4672 13.4072 12.6763 13.1322 12.8303C12.9782 12.9183 12.6591 13.0063 12.5051 13.0063C12.329 13.0063 12.12 12.9183 11.977 12.7753C11.8779 12.6763 11.4488 12.0491 10.4806 10.5418C9.7435 9.38661 9.11637 8.42941 9.10537 8.41841C9.06136 8.39641 9.06136 8.39641 10.4036 10.7949C11.2508 12.3022 11.5259 12.8413 11.5259 12.9073C11.5259 13.0504 11.4819 13.1274 11.3058 13.3254C11.0088 13.6555 10.8767 14.0296 10.7777 14.8107C10.6677 15.6799 10.3706 16.296 9.52345 17.3412C9.02835 17.9574 8.95134 18.0674 8.83031 18.3204C8.67628 18.6285 8.63227 18.8045 8.61027 19.2006C8.58826 19.6187 8.63227 19.8827 8.75329 20.2788C8.86332 20.6309 8.98434 20.8619 9.2814 21.313C9.53445 21.7091 9.68849 22.0062 9.68849 22.1162C9.68849 22.2042 9.71049 22.2042 10.1066 22.1162C11.0528 21.8962 11.8339 21.5221 12.263 21.06C12.5271 20.7739 12.5931 20.6199 12.5931 20.2238C12.5931 19.9708 12.5821 19.9158 12.5161 19.7617C12.406 19.5197 12.197 19.3216 11.7459 19.0136C11.1518 18.6065 10.8987 18.2764 10.8327 17.8363C10.7777 17.4623 10.8437 17.2092 11.1738 16.5161C11.5149 15.8009 11.6029 15.5039 11.6579 14.7777C11.6909 14.3156 11.7459 14.1286 11.8779 13.9855C12.021 13.8315 12.142 13.7765 12.4831 13.7325C13.0442 13.6555 13.4072 13.5124 13.6933 13.2374C13.9464 13.0063 14.0564 12.7753 14.0674 12.4342L14.0784 12.1812L13.9353 12.0271C13.4182 11.433 6.25579 3.55542 6.22278 3.55542C6.21178 3.55542 6.38781 3.76446 6.59686 4.02852ZM9.97454 19.6737C10.0956 19.4647 10.0296 19.2006 9.83151 19.0686C9.64448 18.9476 9.35842 19.0026 9.35842 19.1676C9.35842 19.2116 9.38042 19.2556 9.44644 19.2776C9.54546 19.3326 9.55646 19.3876 9.47944 19.5087C9.40243 19.6297 9.40243 19.7397 9.50145 19.8167C9.65548 19.9378 9.86452 19.8717 9.97454 19.6737Z" fill="#FF007A"/>
<path fill-rule="evenodd" clip-rule="evenodd" d="M14.4304 13.8865C14.1663 13.9635 13.9133 14.2496 13.8363 14.5356C13.7923 14.7117 13.8143 15.0307 13.8913 15.1298C14.0123 15.2838 14.1223 15.3278 14.4304 15.3278C15.0355 15.3278 15.5526 15.0638 15.6076 14.7447C15.6626 14.4806 15.4316 14.1176 15.1125 13.9525C14.9475 13.8645 14.6064 13.8315 14.4304 13.8865ZM15.1345 14.4366C15.2226 14.3046 15.1895 14.1616 15.0245 14.0625C14.7275 13.8755 14.2764 14.0295 14.2764 14.3156C14.2764 14.4586 14.5074 14.6127 14.7275 14.6127C14.8705 14.6127 15.0685 14.5246 15.1345 14.4366Z" fill="#FF007A"/>
</svg>
