<svg width="32" height="32" viewBox="0 0 32 32" fill="none" xmlns="http://www.w3.org/2000/svg">
<circle cx="16" cy="16" r="16" fill="white"/>
<path d="M9.73528 7.34851L26.3075 18.6639L22.209 24.7226L5.63678 13.3181L9.73528 7.34851Z" fill="url(#paint0_linear_126_1192)"/>
<path d="M26.3074 18.6639C24.8819 20.7131 20.0706 19.9112 15.5266 16.7037C10.8935 13.5853 8.39877 9.39769 9.73524 7.34844C11.1608 5.29919 15.9721 6.10107 20.5161 9.30859C25.1492 12.3379 27.6439 16.6146 26.3074 18.6639Z" fill="url(#paint1_linear_126_1192)"/>
<path d="M22.2089 24.6337C20.7833 26.683 15.972 25.8811 11.428 22.6735C6.88405 19.466 4.30022 15.3675 5.72578 13.2292C7.15135 11.1799 11.9626 11.9818 16.5066 15.1893C21.0506 18.3969 23.5453 22.5845 22.2089 24.6337Z" fill="url(#paint2_linear_126_1192)"/>
<path d="M26.3074 18.6641L22.2089 24.7228C20.7833 26.772 15.972 25.8811 11.428 22.7626C10.5371 22.1389 9.73517 21.5153 8.93329 20.8025C9.55697 20.7134 10.3589 20.357 11.1607 19.466C12.5863 17.9513 13.2991 17.595 13.9228 17.6841C14.5465 17.6841 15.2592 18.3077 16.4175 19.8224C17.5758 21.3371 19.1795 21.7826 20.1596 20.9807C20.2487 20.8916 20.3378 20.8916 20.4269 20.8025C21.2288 20.1788 21.4961 19.9115 23.0107 17.0604C23.3671 16.3476 24.6145 15.1893 26.3074 15.7239C26.7529 16.8822 26.7529 17.8622 26.3074 18.6641Z" fill="#0E0F23"/>
<path fill-rule="evenodd" clip-rule="evenodd" d="M25.6838 18.3074C24.4364 20.0893 20.0706 19.1984 15.883 16.2581C11.6063 13.3179 9.11155 9.57579 10.3589 7.79384C11.6063 6.01188 15.9721 6.90286 20.1597 9.84309C24.3473 12.7833 26.842 16.5254 25.6838 18.3074ZM21.7634 15.6344C21.1398 16.5254 19.0014 16.0799 16.8631 14.6544C14.8138 13.2288 13.5664 11.3578 14.1901 10.4668C14.8138 9.57579 16.9522 10.0213 19.0905 11.4468C21.1398 12.8724 22.3871 14.7435 21.7634 15.6344Z" fill="white"/>
<path d="M9.37879 9.39798C9.37879 9.30888 9.28969 9.21978 9.2006 9.30888C9.1115 9.39798 9.0224 9.39798 9.0224 9.48707C9.1115 9.75437 9.2006 9.93256 9.2006 10.1108C9.2006 10.1999 9.28969 10.289 9.37879 10.1999C9.46789 10.1999 9.55699 10.1108 9.46789 10.0217C9.46789 9.84347 9.46789 9.66527 9.37879 9.39798Z" fill="white"/>
<path d="M9.8243 10.8233C9.8243 10.7342 9.7352 10.6451 9.6461 10.7342C9.55701 10.8233 9.55701 10.8233 9.55701 10.9124C10.5371 13.1398 12.5863 15.5455 15.2593 17.3274C15.3484 17.4165 15.4375 17.3274 15.5266 17.3274C15.6157 17.2383 15.5266 17.1492 15.5266 17.0601C12.7645 15.2782 10.8044 12.9616 9.8243 10.8233Z" fill="white"/>
<path d="M20.6051 19.5547C20.516 19.5547 20.4269 19.5547 20.4269 19.6438C20.4269 19.7329 20.4269 19.822 20.516 19.822C20.7833 19.9111 21.1397 20.0002 21.407 20.0893C21.4961 20.0893 21.5852 20.0893 21.5852 20.0002C21.5852 19.9111 21.5852 19.822 21.4961 19.822C21.2288 19.7329 20.8724 19.6438 20.6051 19.5547Z" fill="white"/>
<path d="M22.2088 19.9115C22.1197 19.9115 22.0306 20.0006 22.0306 20.0897C22.0306 20.1788 22.1197 20.2679 22.2088 20.2679C22.9216 20.357 23.7235 20.4461 24.3472 20.357C24.4363 20.357 24.5254 20.2679 24.5254 20.1788C24.5254 20.0897 24.4363 20.0006 24.3472 20.0006C23.6344 20.0897 22.9216 20.0006 22.2088 19.9115Z" fill="white"/>
<defs>
<linearGradient id="paint0_linear_126_1192" x1="12.9822" y1="5.73967" x2="16.2686" y2="17.025" gradientUnits="userSpaceOnUse">
<stop stop-color="#03B8FF"/>
<stop offset="1" stop-color="#FA52A0"/>
</linearGradient>
<linearGradient id="paint1_linear_126_1192" x1="15.6886" y1="4.95135" x2="18.9751" y2="16.2368" gradientUnits="userSpaceOnUse">
<stop stop-color="#03B8FF"/>
<stop offset="1" stop-color="#FA52A0"/>
</linearGradient>
<linearGradient id="paint2_linear_126_1192" x1="10.284" y1="6.52555" x2="13.5706" y2="17.8109" gradientUnits="userSpaceOnUse">
<stop stop-color="#03B8FF"/>
<stop offset="1" stop-color="#FA52A0"/>
</linearGradient>
</defs>
</svg>
