<svg width="118" height="37" viewBox="0 0 118 37" fill="none" xmlns="http://www.w3.org/2000/svg">
<rect opacity="0.2" width="118" height="37" rx="5" fill="#5D5FEF"/>
<path d="M52.09 20.93H54.39V22H50.69V15.02H52.09V20.93ZM56.6798 16.11V17.92H59.0298V19H56.6798V20.89H59.3298V22H55.2798V15.01H59.3298V16.11H56.6798ZM66.5721 22H65.1721L62.0021 17.21V22H60.6021V15.01H62.0021L65.1721 19.81V15.01H66.5721V22ZM70.3956 15.02C71.129 15.02 71.7723 15.1633 72.3256 15.45C72.8856 15.7367 73.3156 16.1467 73.6156 16.68C73.9223 17.2067 74.0756 17.82 74.0756 18.52C74.0756 19.22 73.9223 19.8333 73.6156 20.36C73.3156 20.88 72.8856 21.2833 72.3256 21.57C71.7723 21.8567 71.129 22 70.3956 22H67.9556V15.02H70.3956ZM70.3456 20.86C71.0723 20.86 71.6356 20.6533 72.0356 20.24C72.4423 19.8267 72.6456 19.2533 72.6456 18.52C72.6456 17.7933 72.4456 17.2233 72.0456 16.81C71.6456 16.3967 71.079 16.19 70.3456 16.19H69.3556V20.86H70.3456ZM76.5236 15.02V22H75.1236V15.02H76.5236ZM83.8768 22H82.4768L79.3068 17.21V22H77.9068V15.01H79.3068L82.4768 19.81V15.01H83.8768V22ZM84.9203 18.5C84.9203 17.8133 85.0736 17.2 85.3803 16.66C85.6936 16.1133 86.1203 15.69 86.6603 15.39C87.207 15.0833 87.8136 14.93 88.4803 14.93C89.267 14.93 89.9503 15.1233 90.5303 15.51C91.1103 15.89 91.5103 16.4267 91.7303 17.12H90.1203C89.9603 16.8267 89.7403 16.6033 89.4603 16.45C89.1803 16.2967 88.8536 16.22 88.4803 16.22C88.067 16.22 87.7003 16.3133 87.3803 16.5C87.0603 16.6867 86.8103 16.9533 86.6303 17.3C86.4503 17.6467 86.3603 18.0467 86.3603 18.5C86.3603 18.9667 86.4503 19.3733 86.6303 19.72C86.817 20.0667 87.0736 20.3333 87.4003 20.52C87.727 20.7067 88.107 20.8 88.5403 20.8C89.0736 20.8 89.5103 20.6567 89.8503 20.37C90.197 20.0833 90.4203 19.6867 90.5203 19.18H88.1203V18.12H91.9003V19.34C91.807 19.8267 91.607 20.2767 91.3003 20.69C90.9936 21.1033 90.597 21.4367 90.1103 21.69C89.6303 21.9367 89.0903 22.06 88.4903 22.06C87.817 22.06 87.207 21.91 86.6603 21.61C86.1203 21.3033 85.6936 20.88 85.3803 20.34C85.0736 19.8 84.9203 19.1867 84.9203 18.5Z" fill="white"/>
<path d="M12 15.7329V11.8269C12.1657 11.7992 12.3375 11.7563 12.5124 11.7409C13.5688 11.6749 14.6145 11.4907 15.6299 11.1917C16.4096 10.947 17.163 10.6253 17.879 10.2313C18.6031 9.83548 19.3395 9.455 20.0667 9.06225C20.3837 8.88788 20.735 8.78491 21.0959 8.76053C21.4569 8.73615 21.8188 8.79094 22.1563 8.9211C22.6565 9.096 23.1658 9.25862 23.6905 9.43658L23.5371 9.77105C23.1535 10.5934 22.7669 11.4126 22.3957 12.2257C22.369 12.3061 22.3204 12.3775 22.2553 12.4317C22.1903 12.4859 22.1113 12.5209 22.0274 12.5326C21.7454 12.6043 21.498 12.7738 21.3294 13.011C21.1608 13.2482 21.082 13.5375 21.1069 13.8274C21.1298 14.0915 21.236 14.3415 21.4103 14.5412C21.5846 14.7409 21.818 14.8799 22.0765 14.9382C22.7393 15.1284 23.399 15.3493 24.071 15.5058C24.6151 15.6444 25.1835 15.6591 25.734 15.5488C25.9815 15.4892 26.2326 15.4462 26.4858 15.4199C26.823 15.3912 27.1588 15.4893 27.4274 15.6951C27.6961 15.9008 27.8784 16.1994 27.9386 16.5324C27.9989 16.8654 27.9327 17.2089 27.7531 17.4957C27.5735 17.7825 27.2934 17.992 26.9675 18.0833C26.4428 18.2397 25.9243 18.4239 25.3935 18.5589C24.923 18.6747 24.4353 18.7038 23.9544 18.6448C23.5248 18.5895 23.0891 18.5803 22.6534 18.5435C22.0397 18.4944 21.426 18.4392 20.8124 18.387C20.4626 18.3564 20.1097 18.3165 19.7599 18.298C19.077 18.2419 18.4213 18.0046 17.8606 17.6107C16.6939 16.853 15.3948 16.3221 14.0313 16.0459C13.4605 15.9293 12.8775 15.874 12.2976 15.7881L12 15.7329Z" fill="white"/>
<path d="M39.1428 23.9899V28.3348C38.7102 28.3869 38.2776 28.4084 37.8633 28.4943C37.219 28.6293 36.5777 28.8011 35.9487 28.976C35.3196 29.1509 34.6354 29.4148 33.988 29.6572C33.2357 29.9574 32.42 30.0629 31.6161 29.9641C31.0024 29.8843 30.3888 29.829 29.7751 29.7493C28.7349 29.6112 27.6825 29.5498 26.673 29.2154C25.7676 28.9014 24.9143 28.4536 24.1416 27.8868L21.38 25.9107C21.1346 25.7358 20.883 25.5671 20.6375 25.3891C20.4953 25.2953 20.3932 25.1517 20.3512 24.9866C20.3092 24.8215 20.3303 24.6466 20.4104 24.4962C20.451 24.4196 20.5064 24.3517 20.5734 24.2966C20.6403 24.2415 20.7176 24.2002 20.8006 24.1751C20.8836 24.15 20.9708 24.1416 21.0571 24.1503C21.1434 24.1591 21.227 24.1849 21.3033 24.2262L24.3717 25.6622C25.0988 26.0198 25.8791 26.2572 26.6822 26.3649C27.3695 26.4446 28.0568 26.4845 28.7472 26.5336C29.548 26.5919 30.3489 26.641 31.1497 26.687C31.4205 26.7039 31.6921 26.7039 31.9628 26.687C32.0732 26.6721 32.1784 26.6311 32.2697 26.5674C32.4583 26.4595 32.6202 26.3105 32.7435 26.1315C32.8667 25.9525 32.9481 25.7481 32.9815 25.5333C32.9963 25.3935 32.9824 25.2521 32.9405 25.1178C32.8986 24.9836 32.8297 24.8594 32.738 24.7527C32.6463 24.6461 32.5338 24.5594 32.4074 24.4978C32.2809 24.4363 32.1432 24.4013 32.0027 24.395C31.3891 24.3489 30.7754 24.3182 30.1617 24.2661C29.9199 24.2356 29.6962 24.1223 29.5284 23.9456C29.3606 23.7689 29.2591 23.5395 29.2412 23.2965C29.2272 23.0226 29.3192 22.7538 29.498 22.5459C29.6768 22.338 29.9287 22.2068 30.2016 22.1796C30.9687 22.0569 31.7358 21.9065 32.4906 21.7715C33.1873 21.6355 33.9096 21.7799 34.5004 22.1735C35.3407 22.7578 36.2645 23.212 37.2405 23.5205C37.8633 23.6954 38.4924 23.8304 39.1428 23.9899Z" fill="white"/>
<path d="M20.346 19.418L21.1683 19.4763L21.9968 19.5499C22.342 19.5614 22.6863 19.5932 23.0278 19.6451C23.2904 19.7258 23.5435 19.8348 23.7826 19.9703L26.8264 21.394C26.9952 21.035 27.1639 20.6822 27.3266 20.3324C27.569 19.8169 27.8052 19.2953 28.0568 18.7982C28.1281 18.6719 28.2193 18.5579 28.3269 18.4607C28.6042 18.1803 28.8077 17.8356 28.919 17.4573C28.9518 17.3724 29.0169 17.304 29.1001 17.2671C29.3903 17.1834 29.6494 17.0158 29.8448 16.7855C30.0402 16.5551 30.1633 16.2722 30.1986 15.9722C30.2334 15.4782 30.0824 14.989 29.7751 14.6007C29.3741 14.0472 28.8654 13.5803 28.2797 13.2281C27.6939 12.8759 27.0431 12.6456 26.3662 12.551C25.8341 12.4491 25.2848 12.485 24.7706 12.6553C24.4126 12.7478 24.0993 12.9647 23.8868 13.2672C23.6743 13.5697 23.5764 13.938 23.6108 14.3061L22.7179 14.0361L23.6936 11.9496C24.0863 11.0996 24.476 10.2497 24.8719 9.40283C25.1787 8.73699 25.507 8.07422 25.82 7.40838C25.8535 7.32408 25.9043 7.24776 25.9692 7.18436C26.0341 7.12097 26.1115 7.07191 26.1966 7.04038C26.2816 7.00885 26.3724 6.99554 26.4629 7.00131C26.5534 7.00709 26.6417 7.03183 26.7221 7.07392C27.5413 7.47588 28.3729 7.8533 29.2013 8.23685C30.4839 8.85052 31.7634 9.44578 33.0521 10.0318C33.1436 10.0653 33.2266 10.1184 33.2953 10.1873C33.364 10.2563 33.4167 10.3395 33.4497 10.4311C33.4828 10.5226 33.4954 10.6204 33.4866 10.7173C33.4778 10.8143 33.4479 10.9081 33.3989 10.9922C32.8189 12.1858 32.2697 13.3917 31.7082 14.5945C30.7877 16.5644 29.8672 18.5364 28.9467 20.5103C28.6398 21.1885 28.3146 21.8666 27.9924 22.5416C27.9602 22.6246 27.9104 22.6995 27.8464 22.7613C27.7823 22.8231 27.7056 22.8702 27.6215 22.8994C27.5375 22.9286 27.4481 22.9392 27.3595 22.9304C27.2709 22.9216 27.1854 22.8936 27.1087 22.8484L23.1198 20.9859C22.3619 20.63 21.5856 20.2833 20.8369 19.9273C20.7192 19.89 20.6126 19.8238 20.5269 19.7349C20.4412 19.646 20.379 19.537 20.346 19.418ZM26.9952 8.50687L25.6297 11.4279C26.545 11.4437 27.4467 11.6524 28.2757 12.0405C29.1048 12.4286 29.8426 12.9873 30.4409 13.6801L31.8033 10.7621L26.9952 8.50687Z" fill="white"/>
<path d="M25.6512 25.0485C25.3137 24.9043 24.9731 24.7632 24.6386 24.6128C24.1508 24.3919 23.6537 24.1833 23.1842 23.9255C23.0398 23.8361 22.9241 23.7069 22.8512 23.5534C22.7783 23.3999 22.7512 23.2287 22.7731 23.0602C22.7784 22.9348 22.8235 22.8142 22.9018 22.7161C22.9801 22.6179 23.0876 22.5471 23.2088 22.5141C23.3421 22.4668 23.4868 22.4624 23.6227 22.5015C23.7585 22.5406 23.8788 22.6211 23.9667 22.7319C24.3226 23.2044 24.6724 23.68 25.0314 24.1526C25.2462 24.4379 25.4702 24.7172 25.6911 25.0025L25.6512 25.0485Z" fill="white"/>
<path d="M29.0878 11.4434C28.9048 11.4328 28.7264 11.3826 28.5648 11.2963C28.4032 11.2099 28.2623 11.0894 28.1519 10.9432C28.0906 10.882 28.051 10.8022 28.0394 10.7163C28.0277 10.6304 28.0446 10.543 28.0875 10.4676C28.1445 10.3896 28.2219 10.3289 28.3112 10.292C28.4006 10.2552 28.4983 10.2438 28.5938 10.259C28.7661 10.2682 28.9345 10.3144 29.0874 10.3943C29.2404 10.4743 29.3745 10.5861 29.4805 10.7223C29.5458 10.7791 29.5918 10.8548 29.6121 10.939C29.6324 11.0231 29.6261 11.1114 29.5941 11.1918C29.5425 11.2777 29.4674 11.347 29.3777 11.3916C29.288 11.4362 29.1874 11.4542 29.0878 11.4434Z" fill="white"/>
</svg>
