<svg width="118" height="37" viewBox="0 0 118 37" fill="none" xmlns="http://www.w3.org/2000/svg">
<rect opacity="0.2" width="118" height="37" rx="5" fill="#EF5DB5"/>
<path d="M56.66 22H55.26L52.09 17.21V22H50.69V15.01H52.09L55.26 19.81V15.01H56.66V22ZM61.2835 22.07C60.6302 22.07 60.0302 21.9167 59.4835 21.61C58.9368 21.3033 58.5035 20.88 58.1835 20.34C57.8635 19.7933 57.7035 19.1767 57.7035 18.49C57.7035 17.81 57.8635 17.2 58.1835 16.66C58.5035 16.1133 58.9368 15.6867 59.4835 15.38C60.0302 15.0733 60.6302 14.92 61.2835 14.92C61.9435 14.92 62.5435 15.0733 63.0835 15.38C63.6302 15.6867 64.0602 16.1133 64.3735 16.66C64.6935 17.2 64.8535 17.81 64.8535 18.49C64.8535 19.1767 64.6935 19.7933 64.3735 20.34C64.0602 20.88 63.6302 21.3033 63.0835 21.61C62.5368 21.9167 61.9368 22.07 61.2835 22.07ZM61.2835 20.78C61.7035 20.78 62.0735 20.6867 62.3935 20.5C62.7135 20.3067 62.9635 20.04 63.1435 19.7C63.3235 19.3533 63.4135 18.95 63.4135 18.49C63.4135 18.03 63.3235 17.63 63.1435 17.29C62.9635 16.9433 62.7135 16.6767 62.3935 16.49C62.0735 16.3033 61.7035 16.21 61.2835 16.21C60.8635 16.21 60.4902 16.3033 60.1635 16.49C59.8435 16.6767 59.5935 16.9433 59.4135 17.29C59.2335 17.63 59.1435 18.03 59.1435 18.49C59.1435 18.95 59.2335 19.3533 59.4135 19.7C59.5935 20.04 59.8435 20.3067 60.1635 20.5C60.4902 20.6867 60.8635 20.78 61.2835 20.78ZM71.8651 22H70.4651L67.2951 17.21V22H65.8951V15.01H67.2951L70.4651 19.81V15.01H71.8651V22ZM74.6486 16.11V17.92H76.9986V19H74.6486V20.89H77.2986V22H73.2486V15.01H77.2986V16.11H74.6486Z" fill="white"/>
<path d="M24.4232 15.2188V13.9062C24.4232 13.7322 24.3543 13.5653 24.2317 13.4422C24.1091 13.3191 23.9428 13.25 23.7693 13.25H22.3493L24.6937 10.8965C24.939 10.6505 25.0769 10.3168 25.077 9.96875V9.3125C25.077 8.9644 24.9393 8.63056 24.694 8.38442C24.4488 8.13828 24.1162 8 23.7693 8H19.5193C19.3459 8 19.1796 8.06914 19.057 8.19221C18.9344 8.31528 18.8655 8.4822 18.8655 8.65625V9.96875C18.8655 10.1428 18.9344 10.3097 19.057 10.4328C19.1796 10.5559 19.3459 10.625 19.5193 10.625H21.2663L18.9219 12.9785C18.6766 13.2245 18.5387 13.5582 18.5386 13.9062V14.5625C18.5386 14.9106 18.6763 15.2444 18.9216 15.4906C19.1668 15.7367 19.4994 15.875 19.8463 15.875H23.7693C23.9428 15.875 24.1091 15.8059 24.2317 15.6828C24.3543 15.5597 24.4232 15.3928 24.4232 15.2188ZM30.3078 19.1562V18.5C30.3078 18.1519 30.17 17.8181 29.9248 17.5719C29.6796 17.3258 29.3469 17.1875 29.0001 17.1875H25.077C24.9036 17.1875 24.7373 17.2566 24.6147 17.3797C24.4921 17.5028 24.4232 17.6697 24.4232 17.8438V19.1562C24.4232 19.3303 24.4921 19.4972 24.6147 19.6203C24.7373 19.7434 24.9036 19.8125 25.077 19.8125H26.4971L24.1527 22.166C23.9074 22.412 23.7695 22.7457 23.7693 23.0938V23.75C23.7693 24.0981 23.9071 24.4319 24.1524 24.6781C24.3976 24.9242 24.7302 25.0625 25.077 25.0625H29.327C29.5004 25.0625 29.6668 24.9934 29.7894 24.8703C29.912 24.7472 29.9809 24.5803 29.9809 24.4062V23.0938C29.9809 22.9197 29.912 22.7528 29.7894 22.6297C29.6668 22.5066 29.5004 22.4375 29.327 22.4375H27.58L29.9245 20.084C30.1698 19.838 30.3076 19.5043 30.3078 19.1562Z" fill="white"/>
<path d="M19.8462 17.1875H13.6346C13.3745 17.1875 13.125 17.2912 12.9411 17.4758C12.7572 17.6604 12.6538 17.9108 12.6538 18.1719V20.1406C12.6538 20.4017 12.7572 20.6521 12.9411 20.8367C13.125 21.0213 13.3745 21.125 13.6346 21.125H15.6959L12.3302 24.9255C12.1175 25.1658 12 25.4761 12 25.7975V27.6875C12 28.0356 12.1378 28.3694 12.383 28.6156C12.6283 28.8617 12.9609 29 13.3077 29H19.5192C19.7793 29 20.0288 28.8963 20.2127 28.7117C20.3967 28.5271 20.5 28.2767 20.5 28.0156V26.0469C20.5 25.7858 20.3967 25.5354 20.2127 25.3508C20.0288 25.1662 19.7793 25.0625 19.5192 25.0625H17.458L20.8237 21.262C21.0364 21.0217 21.1539 20.7114 21.1538 20.39V18.5C21.1538 18.1519 21.0161 17.8181 20.7708 17.5719C20.5256 17.3258 20.193 17.1875 19.8462 17.1875Z" fill="white"/>
</svg>
