<svg width="118" height="37" viewBox="0 0 118 37" fill="none" xmlns="http://www.w3.org/2000/svg">
<rect opacity="0.2" width="118" height="37" rx="5" fill="#EFCF5D"/>
<path d="M53.1 22.07C52.6133 22.07 52.1733 21.9867 51.78 21.82C51.3933 21.6533 51.0867 21.4133 50.86 21.1C50.6333 20.7867 50.5167 20.4167 50.51 19.99H52.01C52.03 20.2833 52.13 20.5167 52.31 20.69C52.4967 20.8633 52.75 20.95 53.07 20.95C53.3967 20.95 53.6533 20.87 53.84 20.71C54.0267 20.55 54.12 20.3367 54.12 20.07C54.12 19.8633 54.0567 19.6933 53.93 19.56C53.8033 19.4267 53.6433 19.3233 53.45 19.25C53.2633 19.17 53.0033 19.0833 52.67 18.99C52.2167 18.8567 51.8467 18.7267 51.56 18.6C51.28 18.4667 51.0367 18.27 50.83 18.01C50.63 17.7433 50.53 17.39 50.53 16.95C50.53 16.5367 50.6333 16.1767 50.84 15.87C51.0467 15.5633 51.3367 15.33 51.71 15.17C52.0833 15.0033 52.51 14.92 52.99 14.92C53.71 14.92 54.2933 15.0967 54.74 15.45C55.1933 15.7967 55.4433 16.2833 55.49 16.91H53.95C53.9367 16.65 53.8333 16.4433 53.64 16.29C53.4533 16.13 53.2033 16.05 52.89 16.05C52.6167 16.05 52.3967 16.1233 52.23 16.27C52.07 16.41 51.99 16.62 51.99 16.9C51.99 17.0867 52.05 17.2433 52.17 17.37C52.2967 17.49 52.45 17.59 52.63 17.67C52.8167 17.7433 53.0767 17.83 53.41 17.93C53.8633 18.0633 54.2333 18.1967 54.52 18.33C54.8067 18.4633 55.0533 18.6633 55.26 18.93C55.4667 19.1967 55.57 19.5467 55.57 19.98C55.57 20.3533 55.4733 20.7 55.28 21.02C55.0867 21.34 54.8033 21.5967 54.43 21.79C54.0567 21.9767 53.6133 22.07 53.1 22.07ZM61.5338 15.02V16.12H59.6738V22H58.2738V16.12H56.4138V15.02H61.5338ZM66.8352 20.67H64.0552L63.5952 22H62.1252L64.6352 15.01H66.2652L68.7752 22H67.2952L66.8352 20.67ZM66.4652 19.58L65.4452 16.63L64.4252 19.58H66.4652ZM73.6534 22L71.1134 18.89V22H69.7134V15.02H71.1134V18.15L73.6534 15.02H75.3434L72.4634 18.48L75.4234 22H73.6534ZM77.7443 15.02V22H76.3443V15.02H77.7443ZM85.0975 22H83.6975L80.5275 17.21V22H79.1275V15.01H80.5275L83.6975 19.81V15.01H85.0975V22ZM86.141 18.5C86.141 17.8133 86.2943 17.2 86.601 16.66C86.9143 16.1133 87.341 15.69 87.881 15.39C88.4277 15.0833 89.0343 14.93 89.701 14.93C90.4877 14.93 91.171 15.1233 91.751 15.51C92.331 15.89 92.731 16.4267 92.951 17.12H91.341C91.181 16.8267 90.961 16.6033 90.681 16.45C90.401 16.2967 90.0743 16.22 89.701 16.22C89.2877 16.22 88.921 16.3133 88.601 16.5C88.281 16.6867 88.031 16.9533 87.851 17.3C87.671 17.6467 87.581 18.0467 87.581 18.5C87.581 18.9667 87.671 19.3733 87.851 19.72C88.0377 20.0667 88.2943 20.3333 88.621 20.52C88.9477 20.7067 89.3277 20.8 89.761 20.8C90.2943 20.8 90.731 20.6567 91.071 20.37C91.4177 20.0833 91.641 19.6867 91.741 19.18H89.341V18.12H93.121V19.34C93.0277 19.8267 92.8277 20.2767 92.521 20.69C92.2143 21.1033 91.8177 21.4367 91.331 21.69C90.851 21.9367 90.311 22.06 89.711 22.06C89.0377 22.06 88.4277 21.91 87.881 21.61C87.341 21.3033 86.9143 20.88 86.601 20.34C86.2943 19.8 86.141 19.1867 86.141 18.5Z" fill="white"/>
<path d="M15 21.4984V23.5C15 25.1547 19.0312 26.5 24 26.5C28.9688 26.5 33 25.1547 33 23.5V21.4984C31.0641 22.8625 27.525 23.5 24 23.5C20.475 23.5 16.9359 22.8625 15 21.4984ZM15 16.5812V19C15 20.6547 19.0312 22 24 22C28.9688 22 33 20.6547 33 19V16.5812C31.0641 18.175 27.5203 19 24 19C20.4797 19 16.9359 18.175 15 16.5812ZM24 10C19.0312 10 15 11.6781 15 13.75C15 15.8219 19.0312 17.5 24 17.5C28.9688 17.5 33 15.8219 33 13.75C33 11.6781 28.9688 10 24 10Z" fill="white"/>
</svg>
