<svg width="60" height="60" viewBox="0 0 60 60" fill="none" xmlns="http://www.w3.org/2000/svg">
<circle cx="30" cy="30" r="30" fill="#2775CA"/>
<path d="M38 34.4771C38 30.5561 35.6492 29.2117 30.9477 28.6516C27.5895 28.2034 26.9178 27.3072 26.9178 25.7386C26.9178 24.1699 28.0373 23.1619 30.2761 23.1619C32.291 23.1619 33.4105 23.8341 33.9701 25.5146C34.0822 25.8507 34.418 26.0747 34.7538 26.0747H36.5447C36.9925 26.0747 37.3284 25.7386 37.3284 25.2906V25.1785C36.8805 22.7137 34.8656 20.8092 32.291 20.5852V17.8964C32.291 17.4482 31.9552 17.1121 31.3956 17H29.7165C29.2686 17 28.9328 17.3361 28.8208 17.8964V20.4731C25.4625 20.9213 23.3358 23.1619 23.3358 25.9628C23.3358 29.6599 25.5746 31.1161 30.2761 31.6765C33.4105 32.2366 34.418 32.9088 34.418 34.7014C34.418 36.494 32.8506 37.7263 30.7239 37.7263C27.8133 37.7263 26.8058 36.4937 26.47 34.8132C26.3582 34.3653 26.0224 34.141 25.6866 34.141H23.7834C23.3358 34.141 23 34.4771 23 34.9253V35.0375C23.4476 37.8381 25.2387 39.8547 28.9328 40.415V43.1038C28.9328 43.5518 29.2686 43.8879 29.8282 44H31.5073C31.9552 44 32.291 43.6639 32.403 43.1038V40.415C35.7613 39.8547 38 37.502 38 34.4771Z" fill="white"/>
<path d="M24.9899 45.4711C16.5628 42.477 12.2411 33.1735 15.3744 24.9392C16.9951 20.4478 20.5604 17.0259 24.9899 15.4219C25.4222 15.2081 25.6382 14.8873 25.6382 14.3524V12.8554C25.6382 12.4276 25.4222 12.1068 24.9899 12C24.8818 12 24.6658 12 24.5577 12.1068C14.294 15.3149 8.67578 26.1157 11.917 36.2746C13.8617 42.263 18.5075 46.8613 24.5577 48.7862C24.9899 49 25.4222 48.7862 25.5301 48.3584C25.6382 48.2516 25.6382 48.1446 25.6382 47.9308V46.4335C25.6382 46.1127 25.3141 45.6851 24.9899 45.4711ZM36.4423 12.1068C36.0101 11.893 35.5778 12.1068 35.4699 12.5346C35.3618 12.6416 35.3618 12.7484 35.3618 12.9624V14.4595C35.3618 14.8873 35.6859 15.3149 36.0101 15.5289C44.4372 18.523 48.7589 27.8265 45.6256 36.0608C44.005 40.5522 40.4396 43.9741 36.0101 45.5781C35.5778 45.7919 35.3618 46.1127 35.3618 46.6476V48.1446C35.3618 48.5724 35.5778 48.8932 36.0101 49C36.1182 49 36.3342 49 36.4423 48.8932C46.706 45.6851 52.3242 34.8843 49.083 24.7254C47.1383 18.63 42.3843 14.0316 36.4423 12.1068Z" fill="white"/>
</svg>
