<svg width="60" height="60" viewBox="0 0 60 60" fill="none" xmlns="http://www.w3.org/2000/svg">
<circle cx="30" cy="30" r="30" fill="#2EBAC6"/>
<path fill-rule="evenodd" clip-rule="evenodd" d="M30.5 14C31.2904 14 32.0066 14.4655 32.3276 15.1877L44.3276 42.1877C44.7762 43.1971 44.3217 44.379 43.3123 44.8276C42.3029 45.2762 41.121 44.8216 40.6724 43.8123L30.5 20.9244L20.3276 43.8123C19.879 44.8216 18.6971 45.2762 17.6877 44.8276C16.6784 44.379 16.2238 43.1971 16.6724 42.1877L28.6724 15.1877C28.9934 14.4655 29.7096 14 30.5 14Z" fill="white"/>
<path fill-rule="evenodd" clip-rule="evenodd" d="M16 32C16 30.8954 16.8954 30 18 30H27.5C28.6046 30 29.5 30.8954 29.5 32C29.5 33.1046 28.6046 34 27.5 34H18C16.8954 34 16 33.1046 16 32Z" fill="white"/>
</svg>
