<svg width="28" height="24" viewBox="0 0 28 24" fill="none" xmlns="http://www.w3.org/2000/svg">
<path d="M27.8541 16.8515H27.1059C27.1058 16.8051 27.0967 16.7594 27.0793 16.717L22.3379 5.04273C22.3285 4.97333 22.2991 4.90876 22.2539 4.85792C22.2086 4.80709 22.1497 4.77249 22.0852 4.75891L15.6277 3.38917C15.5877 3.12873 15.4934 2.8812 15.3517 2.66493C15.21 2.44865 15.0245 2.26916 14.8089 2.13975C14.9226 1.96427 14.9831 1.75582 14.9824 1.5425C14.9824 1.0816 14.6476 0 13.9994 0C13.3512 0 13.0164 1.0816 13.0164 1.5425C13.0157 1.75582 13.0762 1.96427 13.1899 2.13975C12.9743 2.26896 12.7888 2.44832 12.6471 2.6645C12.5053 2.88069 12.411 3.12816 12.3712 3.38855L5.91767 4.75829C5.85357 4.77181 5.79493 4.80607 5.74972 4.85641C5.7045 4.90675 5.67492 4.97073 5.66499 5.03964L0.923614 16.7163C0.906146 16.7587 0.897089 16.8045 0.897014 16.8508H0.148801C0.123008 16.8508 0.0976507 16.8579 0.0752219 16.8715C0.052793 16.8851 0.0340661 16.9047 0.0208817 16.9284C0.0076972 16.952 0.000509438 16.9789 2.60965e-05 17.0064C-0.000457245 17.034 0.00578089 17.0611 0.0181254 17.0853C0.604891 18.2247 1.4677 19.1751 2.51639 19.837C3.56507 20.499 4.76112 20.8482 5.97954 20.8482C7.19796 20.8482 8.39402 20.499 9.4427 19.837C10.4914 19.1751 11.3542 18.2247 11.941 17.0853C11.9531 17.0612 11.9592 17.0342 11.9587 17.0069C11.9582 16.9796 11.9511 16.9529 11.9381 16.9293C11.9251 16.9058 11.9066 16.8863 11.8844 16.8726C11.8622 16.859 11.8371 16.8517 11.8114 16.8515H11.0598C11.0597 16.8051 11.0506 16.7594 11.0332 16.717L6.45253 5.43082H13.3362V22.8265H11.2332C11.1604 22.8265 11.0905 22.8573 11.039 22.9123C10.9875 22.9673 10.9586 23.0418 10.9586 23.1195V23.7069C10.9586 23.7847 10.9875 23.8592 11.039 23.9142C11.0905 23.9691 11.1604 24 11.2332 24H16.7708C16.8437 24 16.9135 23.9691 16.965 23.9142C17.0165 23.8592 17.0455 23.7847 17.0455 23.7069V23.1195C17.0455 23.0418 17.0165 22.9673 16.965 22.9123C16.9135 22.8573 16.8437 22.8265 16.7708 22.8265H14.6667V5.43082H21.5475L16.9668 16.717C16.9495 16.7594 16.9407 16.8052 16.9408 16.8515H16.1891C16.1634 16.8515 16.1381 16.8587 16.1157 16.8724C16.0934 16.886 16.0748 16.9056 16.0616 16.9292C16.0485 16.9529 16.0414 16.9797 16.0409 17.0072C16.0405 17.0347 16.0467 17.0618 16.059 17.0859C16.6458 18.2254 17.5086 19.1757 18.5573 19.8377C19.606 20.4996 20.802 20.8488 22.0204 20.8488C23.2389 20.8488 24.4349 20.4996 25.4836 19.8377C26.5323 19.1757 27.3951 18.2254 27.9819 17.0859C27.9941 17.062 28.0003 17.0351 28 17.0078C27.9996 16.9806 27.9927 16.9539 27.9799 16.9303C27.967 16.9067 27.9487 16.8871 27.9267 16.8733C27.9046 16.8595 27.8796 16.8519 27.8541 16.8515V16.8515ZM10.3971 16.8515H1.56196L5.97954 5.97378L10.3971 16.8515ZM14.0011 0.6824C14.148 0.75644 14.3481 1.28829 14.3481 1.5425C14.3481 1.64068 14.3115 1.73484 14.2465 1.80426C14.1814 1.87369 14.0932 1.91269 14.0011 1.91269C13.9091 1.91269 13.8209 1.87369 13.7558 1.80426C13.6908 1.73484 13.6542 1.64068 13.6542 1.5425C13.6542 1.28891 13.8543 0.75644 14.0011 0.6824ZM12.9893 3.67238C12.9847 3.52751 13.0075 3.38314 13.0562 3.24786C13.105 3.11258 13.1788 2.98916 13.2732 2.88495C13.3677 2.78074 13.4808 2.69787 13.6058 2.64127C13.7309 2.58467 13.8653 2.5555 14.0011 2.5555C14.137 2.5555 14.2714 2.58467 14.3965 2.64127C14.5215 2.69787 14.6346 2.78074 14.7291 2.88495C14.8235 2.98916 14.8973 3.11258 14.9461 3.24786C14.9948 3.38314 15.0176 3.52751 15.013 3.67238V3.67238C15.0042 3.95242 14.8937 4.21784 14.7049 4.4126C14.5161 4.60736 14.2637 4.71623 14.0011 4.71623C13.7386 4.71623 13.4862 4.60736 13.2974 4.4126C13.1086 4.21784 12.9981 3.95242 12.9893 3.67238V3.67238ZM17.6058 16.8515L22.0233 5.97378L26.4403 16.8515H17.6058Z" fill="white"/>
</svg>
