<svg width="196" height="26" viewBox="0 0 196 26" fill="none" xmlns="http://www.w3.org/2000/svg">
<path opacity="0.2" fill-rule="evenodd" clip-rule="evenodd" d="M25.9295 13.0003C25.9295 20.1422 20.14 25.9318 12.9981 25.9318C5.85621 25.9318 0.0666199 20.1422 0.0666199 13.0003C0.0666199 5.85842 5.85621 0.0688248 12.9981 0.0688248C20.1399 0.0688248 25.9295 5.85842 25.9295 13.0003" fill="#52BA00"/>
<path fill-rule="evenodd" clip-rule="evenodd" d="M14.1872 6.00002L7.22797 8.26813L11.9341 10.3399L18.8717 8.05883L14.1872 6.00002ZM7 8.4706L11.7487 10.5294V19L7 16.9412V8.4706ZM14.0588 15.0589V9.8759L19 8.2483V16.8236L14.0588 15.0589Z" fill="#83BD67"/>
<path opacity="0.2" d="M47 26C54.1797 26 60 20.1797 60 13C60 5.82031 54.1797 1.52588e-05 47 1.52588e-05C39.8203 1.52588e-05 34 5.82031 34 13C34 20.1797 39.8203 26 47 26Z" fill="#1276A7"/>
<path d="M48.5719 7.32286C47.7583 7.78606 47.2765 8.62252 47.2765 9.50458C47.2765 9.96778 47.4685 10.4346 47.7088 10.851C47.9007 11.223 47.9948 11.8723 47.3249 12.1975C46.8468 12.4747 46.2214 12.2899 45.9354 11.8255C45.6492 11.4535 45.3137 11.0815 44.8814 10.8042C44.0678 10.341 43.1079 10.341 42.2942 10.8042C41.4805 11.2674 41 12.106 41 12.9883C41 13.8706 41.4781 14.7068 42.2941 15.1712C43.1077 15.6344 44.0675 15.6344 44.8812 15.1712C45.3135 14.9384 45.649 14.5688 45.8869 14.15C46.0788 13.8248 46.6064 13.406 47.2764 13.778C47.7545 14.0552 47.8981 14.6612 47.6603 15.1244C47.4201 15.5432 47.2764 16.0077 47.2764 16.4709C47.2764 17.3542 47.7545 18.1894 48.5718 18.6526C49.3855 19.1158 50.3453 19.1158 51.159 18.6526C51.9727 18.1894 52.4545 17.353 52.4545 16.4709C52.4545 15.5888 51.9753 14.7524 51.1591 14.288C50.7269 14.0552 50.2476 13.9628 49.7212 13.9628C49.289 13.9628 48.7156 13.6856 48.7156 12.9883C48.7156 12.4303 49.1478 12.0138 49.7212 12.0138C50.1993 12.0138 50.7269 11.9214 51.1591 11.6886C51.9728 11.2254 52.4545 10.389 52.4545 9.50698C52.4545 8.62498 51.9753 7.78852 51.1591 7.32526C50.7752 7.09246 50.2971 7.00006 49.8651 7.00006C49.4353 6.99766 48.9535 7.09246 48.5721 7.32286" fill="#1276A7"/>
<path opacity="0.1" d="M93.9295 13.0002C93.9295 20.1421 88.14 25.9318 80.9981 25.9318C73.8562 25.9318 68.0666 20.1421 68.0666 13.0002C68.0666 5.8584 73.8562 0.0688095 80.9981 0.0688095C88.1399 0.0688095 93.9295 5.8584 93.9295 13.0002" fill="#B8B8B8"/>
<path fill-rule="evenodd" clip-rule="evenodd" d="M85.9126 4.59245C85.2029 5.10183 84.4931 5.61122 83.7834 6.09846C82.8279 6.77502 81.8724 7.46516 80.9275 8.1476L80.9268 8.1481C80.6656 8.33676 80.4052 8.52482 80.1459 8.71184C79.9906 8.82258 79.8798 8.84473 79.7467 8.6897C79.5471 8.4793 79.3419 8.27997 79.1367 8.08065C78.9316 7.88132 78.7264 7.68199 78.5268 7.47159C78.4159 7.36086 78.305 7.33871 78.1497 7.40515C77.196 7.89239 76.4419 8.57896 75.8209 9.44271C75.7765 9.487 75.7321 9.55344 75.6878 9.61988C75.541 9.42746 75.3979 9.24262 75.2571 9.06066L75.2571 9.06062C75.0576 8.80278 74.8626 8.55072 74.6675 8.29105C74.4629 8.02289 74.2657 7.75474 74.0716 7.49083L74.0716 7.49081C73.929 7.29699 73.7881 7.10547 73.6472 6.91791C73.5807 6.82489 73.5461 6.74782 73.5626 6.66755C73.1541 7.14675 72.7911 7.66592 72.4803 8.21839L72.4828 8.21733C72.492 8.21353 72.5031 8.20894 72.5161 8.20246C73.248 9.16586 73.9855 10.1293 74.723 11.0927L74.723 11.0928L74.7232 11.093C75.4606 12.0563 76.198 13.0196 76.9298 13.9829C76.918 14.0007 76.9077 14.0169 76.8981 14.032C76.872 14.0731 76.8514 14.1055 76.8189 14.1379L76.8189 14.1379C76.3754 14.603 75.9318 15.0681 75.466 15.5111C75.3329 15.644 75.3107 15.7547 75.3994 15.9097C75.8652 16.7956 76.5084 17.5265 77.3069 18.1244C77.3785 18.1674 77.4409 18.2103 77.5119 18.2591L77.512 18.2592C77.551 18.286 77.5925 18.3146 77.6396 18.3459C77.457 18.4845 77.2791 18.6183 77.1045 18.7497L77.1037 18.7503L77.1032 18.7507L77.1032 18.7507C76.7482 19.0178 76.4065 19.2749 76.0648 19.5419C75.8763 19.6858 75.6878 19.8242 75.4993 19.9626L75.4993 19.9627L75.4993 19.9627C75.3107 20.1011 75.1222 20.2395 74.9337 20.3835C74.8552 20.4507 74.788 20.4839 74.7179 20.4803C75.1514 20.8446 75.6169 21.1719 76.1098 21.4574C76.8887 20.8783 77.661 20.3026 78.4305 19.7289C79.6176 18.8439 80.7982 17.9637 81.9868 17.0835C82.2057 17.2911 82.4191 17.4988 82.6299 17.7037L82.6299 17.7038C82.8463 17.9142 83.0598 18.1218 83.2732 18.3238C83.3562 18.4026 83.4187 18.4682 83.4689 18.5207L83.469 18.5208L83.469 18.5208C83.5612 18.6175 83.6116 18.6703 83.67 18.6815C83.7402 18.6951 83.822 18.6485 84.0023 18.5458L84.0026 18.5457L84.0029 18.5455C84.0486 18.5195 84.1006 18.4898 84.1604 18.4567C84.9811 17.9916 85.6687 17.3493 86.201 16.5741C86.2121 16.552 86.2287 16.5299 86.2453 16.5077L86.2453 16.5077C86.262 16.4855 86.2786 16.4634 86.2897 16.4413C86.2843 16.4413 86.2815 16.4413 86.2814 16.4406C86.2812 16.4399 86.284 16.4386 86.2897 16.4357C86.3008 16.4302 86.323 16.4191 86.3562 16.397C87.0558 17.3356 87.7769 18.2958 88.4983 19.2563C88.8687 18.8126 89.2006 18.3356 89.4886 17.8303C89.0384 17.2516 88.6288 16.7135 88.2193 16.1755C87.9258 15.7892 87.6323 15.4008 87.3382 15.0117C86.6544 14.107 85.9673 13.1979 85.2694 12.2997C85.1363 12.1225 85.1363 12.0118 85.2916 11.8568C85.5023 11.6464 85.7075 11.436 85.9126 11.2256C86.1178 11.0152 86.323 10.8048 86.5337 10.5944C86.6446 10.4836 86.6889 10.3729 86.6002 10.2179C86.1123 9.28767 85.4469 8.51252 84.5819 7.89239C84.558 7.8765 84.5341 7.85775 84.5092 7.83819C84.4647 7.80326 84.4169 7.76576 84.3601 7.73736C84.3967 7.70079 84.4333 7.67092 84.4662 7.64407C84.4931 7.62215 84.5176 7.60224 84.5375 7.58233C84.9589 7.26119 85.3803 6.94559 85.8017 6.62999C86.2232 6.3144 86.6446 5.9988 87.066 5.67766C87.1763 5.58588 87.2713 5.53974 87.3891 5.61492C86.9262 5.21398 86.4252 4.85583 85.8922 4.54663C85.8946 4.5673 85.9 4.57987 85.9126 4.59245ZM87.7396 5.93362C87.8996 6.08772 88.0535 6.24474 88.2012 6.4047C88.0526 6.24255 87.8987 6.08543 87.7396 5.93362Z" fill="#BEBEBE"/>
<path opacity="0.2" d="M115 26C122.18 26 128 20.1797 128 13C128 5.8203 122.18 0 115 0C107.82 0 102 5.8203 102 13C102 20.1797 107.82 26 115 26Z" fill="#505050"/>
<path d="M112.467 10.2442L115.498 20L111 17.1116L112.467 10.2442L115.498 6V8.9768L111 17.1116H120L115.502 8.9768V6L118.533 10.2442L120 17.1116L115.502 20L118.533 10.2442" stroke="white" stroke-width="0.6" stroke-linecap="round" stroke-linejoin="round"/>
<path opacity="0.2" d="M149 26C156.18 26 162 20.1797 162 13C162 5.8203 156.18 0 149 0C141.82 0 136 5.8203 136 13C136 20.1797 141.82 26 149 26Z" fill="#505050"/>
<path fill-rule="evenodd" clip-rule="evenodd" d="M154.047 10.1594L153.789 9.97601L153.788 9.9759L153.788 9.97565L153.788 9.97541C153.385 9.68992 152.965 9.39228 152.553 9.09655C152.542 9.08811 152.531 9.07968 152.517 9.07124C152.461 9.02906 152.398 8.98407 152.32 8.95876L152.314 8.95595C151.09 8.6557 149.847 8.34842 148.636 8.04908L148.289 7.96336C147.69 7.81579 147.092 7.66822 146.494 7.52065L146.494 7.52049C145.896 7.37287 145.297 7.22524 144.699 7.07761C144.668 7.06918 144.638 7.06074 144.604 7.05231C144.496 7.02138 144.372 6.98763 144.238 7.00451C144.2 7.01013 144.166 7.02419 144.136 7.04387L144.103 7.07199C144.05 7.1226 144.022 7.18728 144.008 7.22383L144 7.24633V7.37567L144.006 7.39536C144.575 9.01274 145.155 10.6476 145.726 12.2569L145.726 12.2572C145.914 12.7881 146.102 13.3163 146.287 13.8402L146.805 15.2998L146.805 15.2999L146.805 15.3L146.806 15.3011C147.218 16.4629 147.636 17.6407 148.048 18.8032C148.084 18.9156 148.186 18.9888 148.314 19H148.342C148.461 19 148.566 18.941 148.619 18.8453L150.815 15.5976C151.082 15.2026 151.35 14.8068 151.617 14.411C151.885 14.0152 152.152 13.6195 152.42 13.2244C152.529 13.0627 152.639 12.9003 152.748 12.7379C152.858 12.5755 152.967 12.4132 153.077 12.2515L153.122 12.1846C153.468 11.6713 153.824 11.1437 154.178 10.629L154.197 10.6009V10.5672C154.205 10.4687 154.208 10.2663 154.047 10.1594ZM151.474 11.3432C151.282 11.445 151.088 11.548 150.893 11.6515L150.893 11.6516C150.565 11.8255 150.234 12.0011 149.902 12.1756L150.828 11.1689C151.164 10.8016 151.512 10.4237 151.857 10.05L151.857 10.0499L152.01 9.88387L152.018 9.87544C152.051 9.83045 152.093 9.78827 152.137 9.74328L152.16 9.72025C152.184 9.69671 152.208 9.67238 152.231 9.64486C152.436 9.78827 152.644 9.93449 152.844 10.0779C152.988 10.1819 153.135 10.286 153.285 10.39C152.675 10.7049 152.065 11.0283 151.474 11.3432ZM148.935 12.5327C149.342 12.0912 149.753 11.6441 150.149 11.2083L150.499 10.8273C150.909 10.3797 151.327 9.92398 151.743 9.47334C150.939 9.27508 150.135 9.07683 149.33 8.87857C148.525 8.68035 147.721 8.48213 146.917 8.28391C146.631 8.2108 146.34 8.14051 146.06 8.07302C145.741 7.9971 145.417 7.91837 145.095 7.83401C145.112 7.85426 145.128 7.87423 145.144 7.8941L145.144 7.8941L145.144 7.89411C145.18 7.9377 145.216 7.9808 145.25 8.02522C145.275 8.05588 145.3 8.08711 145.325 8.11846C145.378 8.18487 145.431 8.25181 145.486 8.31484L145.489 8.31765L146.023 8.96869L146.556 9.61956C147.338 10.5728 148.145 11.5598 148.935 12.5327ZM148.755 16.6886L148.78 16.4428L148.78 16.4426C148.803 16.2262 148.826 16.0075 148.846 15.7916L148.871 15.5514C148.888 15.3908 148.904 15.2302 148.921 15.0746L148.939 14.9062C148.972 14.5849 149.006 14.2559 149.035 13.933L149.043 13.8655C149.071 13.6237 149.098 13.3734 149.115 13.1232C149.146 13.1063 149.179 13.0894 149.215 13.0754C149.225 13.0704 149.236 13.0657 149.246 13.061C149.277 13.0467 149.308 13.0325 149.34 13.0135C149.98 12.6733 150.621 12.333 151.264 11.9956C151.904 11.6582 152.561 11.3095 153.213 10.9636C152.619 11.8353 152.023 12.7154 151.447 13.5731L151.121 14.0543C150.729 14.6351 150.33 15.2253 149.933 15.8085C149.82 15.977 149.705 16.1473 149.59 16.3164L149.59 16.3164C149.502 16.4464 149.414 16.5756 149.329 16.7027C149.107 17.0289 148.879 17.3635 148.658 17.6981C148.685 17.3607 148.719 17.0204 148.755 16.6886ZM144.853 8.39576C144.866 8.42982 144.878 8.46387 144.89 8.49762C145.517 10.2675 146.143 12.0348 146.77 13.8022C147.083 14.6855 147.396 15.5688 147.709 16.4524L148.006 17.2876C148.045 17.4029 148.087 17.5209 148.128 17.6334C148.133 17.6486 148.139 17.6641 148.145 17.68C148.154 17.7053 148.164 17.7312 148.172 17.7571C148.184 17.65 148.195 17.5428 148.205 17.4361C148.218 17.3077 148.231 17.1801 148.245 17.0542C148.25 17.0055 148.255 16.9567 148.26 16.9078C148.313 16.3972 148.368 15.8742 148.414 15.3558L148.416 15.3361C148.416 15.3361 148.461 14.9481 148.48 14.7766C148.483 14.7484 148.487 14.7202 148.49 14.6918C148.501 14.5953 148.513 14.4976 148.519 14.3998V14.3969C148.541 14.1973 148.561 14.0005 148.58 13.8036C148.592 13.6905 148.604 13.5755 148.616 13.4596C148.634 13.2875 148.652 13.1135 148.672 12.9404C148.596 12.8552 148.524 12.7669 148.454 12.6801C148.43 12.6495 148.405 12.619 148.38 12.5889C148.308 12.4989 148.233 12.4061 148.159 12.319C147.905 12.0078 147.652 11.6991 147.399 11.3904C147.272 11.2361 147.146 11.0817 147.019 10.9271C146.284 10.0329 145.53 9.11061 144.782 8.19393C144.804 8.25954 144.829 8.32765 144.853 8.39576Z" fill="white"/>
<path d="M183 26C190.18 26 196 20.1797 196 13C196 5.8203 190.18 0 183 0C175.82 0 170 5.8203 170 13C170 20.1797 175.82 26 183 26Z" fill="#0086B6"/>
<mask id="mask0_31_15" style="mask-type:alpha" maskUnits="userSpaceOnUse" x="170" y="0" width="26" height="26">
<path d="M183 26C190.18 26 196 20.1797 196 13C196 5.8203 190.18 0 183 0C175.82 0 170 5.8203 170 13C170 20.1797 175.82 26 183 26Z" fill="white"/>
</mask>
<g mask="url(#mask0_31_15)">
<path fill-rule="evenodd" clip-rule="evenodd" d="M177.434 8.27833C179.034 7.4249 181.055 6.99879 183.496 7C185.936 7 187.957 7.42611 189.559 8.27833C189.84 8.42824 190.005 8.71373 189.986 9.01482L189.663 13.8655C189.526 15.9244 188.347 17.8005 186.485 18.9211L183.961 20.4411C183.678 20.6113 183.314 20.6113 183.032 20.4411L180.508 18.9211C178.646 17.8006 177.466 15.9245 177.329 13.8655L177.007 9.01482C176.987 8.71373 177.153 8.42824 177.434 8.27833Z" stroke="white" stroke-width="0.5"/>
<path d="M177.503 8.28092L183.241 17.9201C183.297 18.014 183.403 18.0721 183.519 18.0718C183.634 18.0715 183.74 18.0129 183.796 17.9188L189.489 8.2335" stroke="white" stroke-width="0.5"/>
<path d="M177.946 16.2118L183.388 7.17807C183.422 7.12198 183.485 7.08741 183.555 7.08783C183.624 7.08826 183.687 7.1236 183.72 7.1801L189.015 16.2516" stroke="white" stroke-width="0.5"/>
<path d="M186.75 13.36C187.125 13.36 187.429 13.0556 187.429 12.68C187.429 12.3044 187.125 12 186.75 12C186.375 12 186.071 12.3044 186.071 12.68C186.071 13.0556 186.375 13.36 186.75 13.36Z" fill="white"/>
<path d="M183.5 18.86C183.875 18.86 184.179 18.5556 184.179 18.18C184.179 17.8044 183.875 17.5 183.5 17.5C183.125 17.5 182.821 17.8044 182.821 18.18C182.821 18.5556 183.125 18.86 183.5 18.86Z" fill="white"/>
<path d="M180 13.36C180.375 13.36 180.679 13.0556 180.679 12.68C180.679 12.3044 180.375 12 180 12C179.625 12 179.321 12.3044 179.321 12.68C179.321 13.0556 179.625 13.36 180 13.36Z" fill="white"/>
<path d="M183.5 18.375V20.125" stroke="white" stroke-width="0.5" stroke-linecap="square"/>
<path d="M177.929 16.1875C178.396 16.291 180.909 17.8117 183.735 18.4565L189.071 16.1875" stroke="white" stroke-width="0.5"/>
</g>
</svg>
