<svg width="26" height="22" viewBox="0 0 26 22" fill="none" xmlns="http://www.w3.org/2000/svg">
<path d="M22.75 3.92857V3.14286C22.75 1.40692 21.2951 0 19.5 0H4.875C2.18258 0 0 2.11062 0 4.71429V17.2857C0 19.8894 2.18258 22 4.875 22H22.75C24.5451 22 26 20.5931 26 18.8571V7.07143C26 5.33549 24.5451 3.92857 22.75 3.92857ZM23.5625 18.8571C23.5625 19.2903 23.1979 19.6429 22.75 19.6429H4.875C3.53082 19.6429 2.4375 18.5856 2.4375 17.2857V4.71429C2.4375 3.41442 3.53082 2.35714 4.875 2.35714H19.5C19.9479 2.35714 20.3125 2.70973 20.3125 3.14286V4.71429H5.6875C5.23859 4.71429 4.875 5.06589 4.875 5.5C4.875 5.93411 5.23859 6.28571 5.6875 6.28571H22.75C23.1979 6.28571 23.5625 6.6383 23.5625 7.07143V18.8571ZM19.5 11C18.6027 11 17.875 11.7037 17.875 12.5714C17.875 13.4392 18.6027 14.1429 19.5 14.1429C20.3973 14.1429 21.125 13.4392 21.125 12.5714C21.125 11.7037 20.3973 11 19.5 11Z" fill="#292630"/>
</svg>
