<svg width="36" height="36" viewBox="0 0 36 36" fill="none" xmlns="http://www.w3.org/2000/svg">
<rect width="36" height="36" rx="5" fill="url(#paint0_linear_139_1181)"/>
<path d="M6 24.9984V27C6 28.6547 10.0312 30 15 30C19.9688 30 24 28.6547 24 27V24.9984C22.0641 26.3625 18.525 27 15 27C11.475 27 7.93594 26.3625 6 24.9984ZM21 12C25.9688 12 30 10.6547 30 9C30 7.34531 25.9688 6 21 6C16.0312 6 12 7.34531 12 9C12 10.6547 16.0312 12 21 12ZM6 20.0812V22.5C6 24.1547 10.0312 25.5 15 25.5C19.9688 25.5 24 24.1547 24 22.5V20.0812C22.0641 21.675 18.5203 22.5 15 22.5C11.4797 22.5 7.93594 21.675 6 20.0812ZM25.5 20.5969C28.1859 20.0766 30 19.1109 30 18V15.9984C28.9125 16.7672 27.3141 17.2922 25.5 17.6156V20.5969ZM15 13.5C10.0312 13.5 6 15.1781 6 17.25C6 19.3219 10.0312 21 15 21C19.9688 21 24 19.3219 24 17.25C24 15.1781 19.9688 13.5 15 13.5ZM25.2797 16.1391C28.0922 15.6328 30 14.6391 30 13.5V11.4984C28.3359 12.675 25.4766 13.3078 22.4672 13.4578C23.85 14.1281 24.8672 15.0281 25.2797 16.1391Z" fill="#313547"/>
<defs>
<linearGradient id="paint0_linear_139_1181" x1="0" y1="0" x2="39.1233" y2="3.44689" gradientUnits="userSpaceOnUse">
<stop stop-color="#FAFF00"/>
<stop offset="1" stop-color="#FFE600"/>
</linearGradient>
</defs>
</svg>
