<svg width="36" height="36" viewBox="0 0 36 36" fill="none" xmlns="http://www.w3.org/2000/svg">
<rect width="36" height="36" rx="5" fill="url(#paint0_linear_139_1175)"/>
<path d="M25.488 16.0033C26.0814 16.0033 26.6615 15.8273 27.1549 15.4976C27.6484 15.1679 28.033 14.6993 28.26 14.1511C28.4871 13.6028 28.5466 12.9995 28.4308 12.4175C28.315 11.8354 28.0292 11.3008 27.6096 10.8812C27.19 10.4616 26.6554 10.1758 26.0733 10.06C25.4913 9.94424 24.888 10.0037 24.3397 10.2308C23.7915 10.4579 23.3229 10.8424 22.9932 11.3359C22.6635 11.8293 22.4875 12.4094 22.4875 13.0028C22.4885 13.7983 22.8049 14.5609 23.3674 15.1234C23.9299 15.6859 24.6925 16.0023 25.488 16.0033ZM26.9976 17.5035H23.9877C23.1955 17.5024 22.4352 17.816 21.8742 18.3754C22.8237 18.8924 23.6377 19.6265 24.2496 20.5179C24.8615 21.4092 25.2542 22.4326 25.3955 23.5045H28.4903C28.6882 23.506 28.8844 23.4683 29.0676 23.3935C29.2509 23.3188 29.4175 23.2085 29.5578 23.069C29.6982 22.9295 29.8095 22.7636 29.8854 22.5808C29.9613 22.3981 30.0003 22.2021 30 22.0042V20.4946C29.997 19.699 29.6783 18.9371 29.114 18.3762C28.5496 17.8154 27.7857 17.5015 26.9901 17.5035H26.9976ZM14.9939 17.5035C16.0326 17.5035 17.0479 17.1955 17.9116 16.6185C18.7752 16.0414 19.4484 15.2212 19.8459 14.2615C20.2434 13.3019 20.3474 12.2459 20.1447 11.2272C19.9421 10.2085 19.4419 9.27268 18.7074 8.53821C17.973 7.80373 17.0372 7.30355 16.0184 7.10091C14.9997 6.89827 13.9437 7.00227 12.9841 7.39977C12.0245 7.79726 11.2043 8.47039 10.6272 9.33404C10.0501 10.1977 9.7421 11.2131 9.7421 12.2518C9.7416 13.6435 10.2937 14.9784 11.2771 15.9632C12.2605 16.948 13.5946 17.502 14.9863 17.5035H14.9939ZM18.5944 19.0038H18.2057C17.2081 19.4966 16.1103 19.753 14.9976 19.753C13.8849 19.753 12.7872 19.4966 11.7896 19.0038H11.4008C9.96861 19.0043 8.59517 19.5735 7.58242 20.5862C6.56968 21.5989 6.0005 22.9724 6 24.4046V25.7558C6 26.3524 6.23699 26.9245 6.65884 27.3464C7.08069 27.7682 7.65283 28.0052 8.24941 28.0052H21.7346C22.3311 28.0052 22.9033 27.7682 23.3251 27.3464C23.747 26.9245 23.984 26.3524 23.984 25.7558V24.4046C23.9835 22.973 23.4148 21.6002 22.4029 20.5875C21.3909 19.5749 20.0185 19.0053 18.5869 19.0038H18.5944Z" fill="#313547"/>
<defs>
<linearGradient id="paint0_linear_139_1175" x1="0" y1="0" x2="39.1233" y2="3.44689" gradientUnits="userSpaceOnUse">
<stop stop-color="#FFBB00"/>
<stop offset="1" stop-color="#FF9900"/>
</linearGradient>
</defs>
</svg>
