<svg width="38" height="35" viewBox="0 0 38 35" fill="none" xmlns="http://www.w3.org/2000/svg">
<path d="M35.2071 1L21.16 11.4329L23.7577 5.27765L35.2071 1Z" fill="#E2761B" stroke="#E2761B" stroke-linecap="round" stroke-linejoin="round"/>
<path d="M2.77881 1L16.7129 11.5318L14.2423 5.27765L2.77881 1Z" fill="#E4761B" stroke="#E4761B" stroke-linecap="round" stroke-linejoin="round"/>
<path d="M30.1529 25.1836L26.4117 30.9154L34.4164 33.1177L36.7176 25.3107L30.1529 25.1836Z" fill="#E4761B" stroke="#E4761B" stroke-linecap="round" stroke-linejoin="round"/>
<path d="M1.29651 25.3107L3.58357 33.1177L11.5883 30.9154L7.8471 25.1836L1.29651 25.3107Z" fill="#E4761B" stroke="#E4761B" stroke-linecap="round" stroke-linejoin="round"/>
<path d="M11.1365 15.4988L8.90588 18.8729L16.8541 19.2259L16.5718 10.6847L11.1365 15.4988Z" fill="#E4761B" stroke="#E4761B" stroke-linecap="round" stroke-linejoin="round"/>
<path d="M26.8494 15.4988L21.3436 10.5858L21.16 19.2258L29.0942 18.8729L26.8494 15.4988Z" fill="#E4761B" stroke="#E4761B" stroke-linecap="round" stroke-linejoin="round"/>
<path d="M11.5883 30.9153L16.36 28.5859L12.2377 25.3671L11.5883 30.9153Z" fill="#E4761B" stroke="#E4761B" stroke-linecap="round" stroke-linejoin="round"/>
<path d="M21.6259 28.5859L26.4117 30.9153L25.7482 25.3671L21.6259 28.5859Z" fill="#E4761B" stroke="#E4761B" stroke-linecap="round" stroke-linejoin="round"/>
<path d="M26.4117 30.9151L21.6259 28.5857L22.007 31.7057L21.9647 33.0186L26.4117 30.9151Z" fill="#D7C1B3" stroke="#D7C1B3" stroke-linecap="round" stroke-linejoin="round"/>
<path d="M11.5883 30.9152L16.0353 33.0188L16.0071 31.7058L16.36 28.5858L11.5883 30.9152Z" fill="#D7C1B3" stroke="#D7C1B3" stroke-linecap="round" stroke-linejoin="round"/>
<path d="M16.1059 23.3058L12.1248 22.1341L14.9342 20.8494L16.1059 23.3058Z" fill="#233447" stroke="#233447" stroke-linecap="round" stroke-linejoin="round"/>
<path d="M21.88 23.3058L23.0518 20.8494L25.8753 22.1341L21.88 23.3058Z" fill="#233447" stroke="#233447" stroke-linecap="round" stroke-linejoin="round"/>
<path d="M11.5882 30.9152L12.2659 25.1835L7.84705 25.3105L11.5882 30.9152Z" fill="#CD6116" stroke="#CD6116" stroke-linecap="round" stroke-linejoin="round"/>
<path d="M25.7341 25.1835L26.4118 30.9152L30.153 25.3105L25.7341 25.1835Z" fill="#CD6116" stroke="#CD6116" stroke-linecap="round" stroke-linejoin="round"/>
<path d="M29.0942 18.8728L21.16 19.2257L21.8942 23.3057L23.0659 20.8493L25.8894 22.134L29.0942 18.8728Z" fill="#CD6116" stroke="#CD6116" stroke-linecap="round" stroke-linejoin="round"/>
<path d="M12.1247 22.134L14.9482 20.8493L16.1059 23.3057L16.8541 19.2257L8.90588 18.8728L12.1247 22.134Z" fill="#CD6116" stroke="#CD6116" stroke-linecap="round" stroke-linejoin="round"/>
<path d="M8.90588 18.8729L12.2376 25.367L12.1247 22.1341L8.90588 18.8729Z" fill="#E4751F" stroke="#E4751F" stroke-linecap="round" stroke-linejoin="round"/>
<path d="M25.8895 22.134L25.7483 25.3669L29.0942 18.8728L25.8895 22.134Z" fill="#E4751F" stroke="#E4751F" stroke-linecap="round" stroke-linejoin="round"/>
<path d="M16.8541 19.2258L16.1058 23.3058L17.0376 28.1199L17.2494 21.7811L16.8541 19.2258Z" fill="#E4751F" stroke="#E4751F" stroke-linecap="round" stroke-linejoin="round"/>
<path d="M21.16 19.2258L20.7788 21.767L20.9482 28.1199L21.8941 23.3058L21.16 19.2258Z" fill="#E4751F" stroke="#E4751F" stroke-linecap="round" stroke-linejoin="round"/>
<path d="M21.8941 23.3059L20.9482 28.12L21.6259 28.5859L25.7482 25.3671L25.8894 22.1342L21.8941 23.3059Z" fill="#F6851B" stroke="#F6851B" stroke-linecap="round" stroke-linejoin="round"/>
<path d="M12.1248 22.1342L12.2377 25.3671L16.3601 28.5859L17.0377 28.12L16.1059 23.3059L12.1248 22.1342Z" fill="#F6851B" stroke="#F6851B" stroke-linecap="round" stroke-linejoin="round"/>
<path d="M21.9647 33.0188L22.0071 31.7059L21.6541 31.3953H16.3318L16.0071 31.7059L16.0353 33.0188L11.5883 30.9153L13.1412 32.1859L16.2894 34.3741H21.6965L24.8588 32.1859L26.4118 30.9153L21.9647 33.0188Z" fill="#C0AD9E" stroke="#C0AD9E" stroke-linecap="round" stroke-linejoin="round"/>
<path d="M21.6259 28.5859L20.9483 28.12H17.0377L16.36 28.5859L16.0071 31.7059L16.3318 31.3953H21.6541L22.0071 31.7059L21.6259 28.5859Z" fill="#161616" stroke="#161616" stroke-linecap="round" stroke-linejoin="round"/>
<path d="M35.8 12.1106L37 6.35059L35.207 1L21.6259 11.08L26.8494 15.4988L34.2329 17.6588L35.8706 15.7529L35.1647 15.2447L36.2941 14.2141L35.4188 13.5365L36.5482 12.6753L35.8 12.1106Z" fill="#763D16" stroke="#763D16" stroke-linecap="round" stroke-linejoin="round"/>
<path d="M1 6.35059L2.2 12.1106L1.43765 12.6753L2.56706 13.5365L1.70588 14.2141L2.83529 15.2447L2.12941 15.7529L3.75294 17.6588L11.1365 15.4988L16.36 11.08L2.77882 1L1 6.35059Z" fill="#763D16" stroke="#763D16" stroke-linecap="round" stroke-linejoin="round"/>
<path d="M34.2329 17.6588L26.8493 15.4988L29.0941 18.8729L25.7482 25.367L30.1529 25.3105H36.7176L34.2329 17.6588Z" fill="#F6851B" stroke="#F6851B" stroke-linecap="round" stroke-linejoin="round"/>
<path d="M11.1365 15.4988L3.75298 17.6588L1.29651 25.3105H7.8471L12.2377 25.367L8.90592 18.8729L11.1365 15.4988Z" fill="#F6851B" stroke="#F6851B" stroke-linecap="round" stroke-linejoin="round"/>
<path d="M21.16 19.2259L21.6258 11.0801L23.7717 5.27771H14.2423L16.36 11.0801L16.8541 19.2259L17.0235 21.7954L17.0376 28.1201H20.9482L20.9764 21.7954L21.16 19.2259Z" fill="#F6851B" stroke="#F6851B" stroke-linecap="round" stroke-linejoin="round"/>
</svg>
